<svg version="1.1" viewBox="0.0 0.0 600.0 371.0" fill="none" stroke="none" stroke-linecap="square" stroke-miterlimit="10" width="600" height="371" xmlns:xlink="http://www.w3.org/1999/xlink" xmlns="http://www.w3.org/2000/svg"><path fill="#efefef" d="M0 0L600.0 0L600.0 371.0L0 371.0L0 0Z" fill-rule="nonzero"/><path stroke="#232323" stroke-width="1.0" stroke-linecap="butt" d="M77.5 318.5L581.5 318.5" fill-rule="nonzero"/><path stroke="#bcbcbc" stroke-width="1.0" stroke-linecap="butt" d="M77.5 245.5L581.5 245.5" fill-rule="nonzero"/><path stroke="#bcbcbc" stroke-width="1.0" stroke-linecap="butt" d="M77.5 172.5L581.5 172.5" fill-rule="nonzero"/><path stroke="#bcbcbc" stroke-width="1.0" stroke-linecap="butt" d="M77.5 98.5L581.5 98.5" fill-rule="nonzero"/><path stroke="#bcbcbc" stroke-width="1.0" stroke-linecap="butt" d="M77.5 25.5L581.5 25.5" fill-rule="nonzero"/><clipPath id="id_0"><path d="M77.55 25.55L581.45 25.55L581.45 318.45L77.55 318.45L77.55 25.55Z" clip-rule="nonzero"/></clipPath><path stroke="#000000" stroke-width="2.0" stroke-linecap="butt" stroke-opacity="0.0" clip-path="url(#id_0)" d="M172.0 318.0L111.0 318.0L111.0 277.0C111.0 275.89542 111.89543 275.0 113.0 275.0L170.0 275.0C171.10457 275.0 172.0 275.89542 172.0 277.0Z" fill-rule="nonzero"/><path fill="#000000" clip-path="url(#id_0)" d="M172.0 318.0L111.0 318.0L111.0 277.0C111.0 275.89542 111.89543 275.0 113.0 275.0L170.0 275.0C171.10457 275.0 172.0 275.89542 172.0 277.0Z" fill-rule="nonzero"/><path stroke="#000000" stroke-width="2.0" stroke-linecap="butt" stroke-opacity="0.0" clip-path="url(#id_0)" d="M266.0 318.0L205.0 318.0L205.0 240.0C205.0 238.89543 205.89543 238.0 207.0 238.0L264.0 238.0C265.10458 238.0 266.0 238.89543 266.0 240.0Z" fill-rule="nonzero"/><path fill="#ea4335" clip-path="url(#id_0)" d="M266.0 318.0L205.0 318.0L205.0 240.0C205.0 238.89543 205.89543 238.0 207.0 238.0L264.0 238.0C265.10458 238.0 266.0 238.89543 266.0 240.0Z" fill-rule="nonzero"/><path stroke="#000000" stroke-width="2.0" stroke-linecap="butt" stroke-opacity="0.0" clip-path="url(#id_0)" d="M361.0 318.0L300.0 318.0L300.0 233.0C300.0 231.89543 300.89542 231.0 302.0 231.0L359.0 231.0C360.10458 231.0 361.0 231.89543 361.0 233.0Z" fill-rule="nonzero"/><path fill="#50de13" clip-path="url(#id_0)" d="M361.0 318.0L300.0 318.0L300.0 233.0C300.0 231.89543 300.89542 231.0 302.0 231.0L359.0 231.0C360.10458 231.0 361.0 231.89543 361.0 233.0Z" fill-rule="nonzero"/><path stroke="#000000" stroke-width="2.0" stroke-linecap="butt" stroke-opacity="0.0" clip-path="url(#id_0)" d="M455.0 318.0L394.0 318.0L394.0 145.0C394.0 143.89543 394.89542 143.0 396.0 143.0L453.0 143.0C454.10458 143.0 455.0 143.89543 455.0 145.0Z" fill-rule="nonzero"/><path fill="#75e5e5" clip-path="url(#id_0)" d="M455.0 318.0L394.0 318.0L394.0 145.0C394.0 143.89543 394.89542 143.0 396.0 143.0L453.0 143.0C454.10458 143.0 455.0 143.89543 455.0 145.0Z" fill-rule="nonzero"/><path stroke="#ffffff" stroke-width="2.0" stroke-linecap="butt" clip-path="url(#id_0)" d="M549.0 318.0L488.0 318.0L488.0 79.0C488.0 77.89543 488.89542 77.0 490.0 77.0L547.0 77.0C548.10455 77.0 549.0 77.89543 549.0 79.0Z" fill-rule="nonzero"/><path fill="#ffffff" clip-path="url(#id_0)" d="M549.0 318.0L488.0 318.0L488.0 79.0C488.0 77.89543 488.89542 77.0 490.0 77.0L547.0 77.0C548.10455 77.0 549.0 77.89543 549.0 79.0Z" fill-rule="nonzero"/><path fill="#000000" d="M26.534388 229.4375L26.831263 228.3125Q28.221888 228.67188 28.956263 229.59375Q29.690638 230.51562 29.690638 231.85938Q29.690638 233.25 29.128138 234.125Q28.565638 235.0 27.503138 235.45312Q26.425013 235.90625 25.190638 235.90625Q23.846888 235.90625 22.846888 235.39062Q21.846888 234.875 21.331263 233.9375Q20.815638 232.98438 20.815638 231.84375Q20.815638 230.5625 21.471888 229.6875Q22.128138 228.79688 23.315638 228.45312L23.581263 229.57812Q22.643763 229.875 22.221888 230.45312Q21.784388 231.01562 21.784388 231.875Q21.784388 232.85938 22.268763 233.53125Q22.737513 234.1875 23.534388 234.46875Q24.331263 234.73438 25.190638 234.73438Q26.284388 234.73438 27.096888 234.42188Q27.909388 234.09375 28.315638 233.42188Q28.721888 232.75 28.721888 231.95312Q28.721888 231.0 28.175013 230.34375Q27.628138 229.67188 26.534388 229.4375ZM29.550013 222.625L28.628138 222.625Q29.690638 223.35938 29.690638 224.60938Q29.690638 225.15625 29.487513 225.64062Q29.268763 226.10938 28.956263 226.34375Q28.628138 226.57812 28.159388 226.67188Q27.862513 226.73438 27.175013 226.73438L23.331263 226.73438L23.331263 225.67188L26.784388 225.67188Q27.596888 225.67188 27.893763 225.60938Q28.300013 225.51562 28.550013 225.20312Q28.784388 224.875 28.784388 224.39062Q28.784388 223.92188 28.550013 223.51562Q28.300013 223.09375 27.878138 222.92188Q27.456263 222.73438 26.659388 222.73438L23.331263 222.73438L23.331263 221.6875L29.550013 221.6875L29.550013 222.625ZM29.550013 219.71875L23.331263 219.71875L23.331263 218.76562L24.268763 218.76562Q23.612513 218.40625 23.409388 218.10938Q23.190638 217.79688 23.190638 217.42188Q23.190638 216.89062 23.518763 216.34375L24.503138 216.70312Q24.268763 217.09375 24.268763 217.46875Q24.268763 217.82812 24.487513 218.10938Q24.690638 218.375 25.065638 218.48438Q25.628138 218.67188 26.284388 218.67188L29.550013 218.67188L29.550013 219.71875ZM29.550013 215.71875L23.331263 215.71875L23.331263 214.76562L24.268763 214.76562Q23.612513 214.40625 23.409388 214.10938Q23.190638 213.79688 23.190638 213.42188Q23.190638 212.89062 23.518763 212.34375L24.503138 212.70312Q24.268763 213.09375 24.268763 213.46875Q24.268763 213.82812 24.487513 214.10938Q24.690638 214.375 25.065638 214.48438Q25.628138 214.67188 26.284388 214.67188L29.550013 214.67188L29.550013 215.71875ZM27.550013 207.45312L27.675013 206.35938Q28.628138 206.60938 29.159388 207.3125Q29.690638 208.01562 29.690638 209.09375Q29.690638 210.45312 28.846888 211.26562Q28.003138 212.0625 26.487513 212.0625Q24.925013 212.0625 24.065638 211.25Q23.190638 210.4375 23.190638 209.15625Q23.190638 207.90625 24.034388 207.125Q24.878138 206.32812 26.425013 206.32812Q26.518763 206.32812 26.706263 206.32812L26.706263 210.96875Q27.737513 210.90625 28.284388 210.39062Q28.815638 209.875 28.815638 209.09375Q28.815638 208.51562 28.518763 208.10938Q28.206263 207.6875 27.550013 207.45312ZM25.846888 210.90625L25.846888 207.4375Q25.050013 207.5 24.659388 207.82812Q24.050013 208.34375 24.050013 209.14062Q24.050013 209.875 24.534388 210.375Q25.018763 210.85938 25.846888 210.90625ZM29.550013 204.70312L23.331263 204.70312L23.331263 203.76562L24.206263 203.76562Q23.190638 203.07812 23.190638 201.78125Q23.190638 201.21875 23.393763 200.75Q23.596888 200.26562 23.925013 200.03125Q24.253138 199.79688 24.690638 199.70312Q24.987513 199.65625 25.721888 199.65625L29.550013 199.65625L29.550013 200.70312L25.768763 200.70312Q25.112513 200.70312 24.800013 200.82812Q24.487513 200.95312 24.300013 201.26562Q24.096888 201.57812 24.096888 202.0Q24.096888 202.67188 24.534388 203.17188Q24.956263 203.65625 26.143763 203.65625L29.550013 203.65625L29.550013 204.70312ZM28.612513 195.40625L29.534388 195.25Q29.628138 195.70312 29.628138 196.04688Q29.628138 196.625 29.456263 196.9375Q29.268763 197.25 28.971888 197.39062Q28.675013 197.51562 27.721888 197.51562L24.143763 197.51562L24.143763 198.28125L23.331263 198.28125L23.331263 197.51562L21.784388 197.51562L21.159388 196.46875L23.331263 196.46875L23.331263 195.40625L24.143763 195.40625L24.143763 196.46875L27.784388 196.46875Q28.237513 196.46875 28.362513 196.42188Q28.487513 196.35938 28.565638 196.23438Q28.643763 196.10938 28.643763 195.875Q28.643763 195.6875 28.612513 195.40625ZM29.550013 191.57812L20.956263 191.57812L20.956263 188.60938Q20.956263 187.60938 21.081263 187.07812Q21.253138 186.34375 21.690638 185.82812Q22.268763 185.14062 23.175013 184.8125Q24.065638 184.46875 25.206263 184.46875Q26.190638 184.46875 26.940638 184.70312Q27.690638 184.92188 28.190638 185.28125Q28.690638 185.64062 28.971888 186.07812Q29.253138 186.5 29.409388 187.09375Q29.550013 187.6875 29.550013 188.46875L29.550013 191.57812ZM28.534388 190.4375L28.534388 188.60938Q28.534388 187.75 28.378138 187.26562Q28.221888 186.78125 27.925013 186.5Q27.534388 186.09375 26.846888 185.875Q26.159388 185.64062 25.190638 185.64062Q23.846888 185.64062 23.128138 186.09375Q22.393763 186.53125 22.143763 187.15625Q21.971888 187.625 21.971888 188.625L21.971888 190.4375L28.534388 190.4375ZM29.550013 182.71875L23.331263 182.71875L23.331263 181.76562L24.268763 181.76562Q23.612513 181.40625 23.409388 181.10938Q23.190638 180.79688 23.190638 180.42188Q23.190638 179.89062 23.518763 179.34375L24.503138 179.70312Q24.268763 180.09375 24.268763 180.46875Q24.268763 180.82812 24.487513 181.10938Q24.690638 181.375 25.065638 181.48438Q25.628138 181.67188 26.284388 181.67188L29.550013 181.67188L29.550013 182.71875ZM28.784388 174.64062Q29.284388 175.23438 29.487513 175.78125Q29.690638 176.3125 29.690638 176.9375Q29.690638 177.96875 29.190638 178.51562Q28.690638 179.0625 27.909388 179.0625Q27.456263 179.0625 27.081263 178.85938Q26.690638 178.65625 26.471888 178.3125Q26.237513 177.96875 26.128138 177.54688Q26.034388 177.25 25.956263 176.60938Q25.815638 175.34375 25.596888 174.73438Q25.378138 174.73438 25.331263 174.73438Q24.675013 174.73438 24.409388 175.03125Q24.065638 175.4375 24.065638 176.23438Q24.065638 176.96875 24.331263 177.32812Q24.581263 177.6875 25.237513 177.85938L25.096888 178.89062Q24.440638 178.75 24.034388 178.42188Q23.628138 178.09375 23.409388 177.48438Q23.190638 176.875 23.190638 176.07812Q23.190638 175.28125 23.378138 174.78125Q23.565638 174.28125 23.846888 174.04688Q24.128138 173.8125 24.565638 173.71875Q24.831263 173.67188 25.534388 173.67188L26.940638 173.67188Q28.409388 173.67188 28.800013 173.60938Q29.190638 173.53125 29.550013 173.32812L29.550013 174.4375Q29.221888 174.59375 28.784388 174.64062ZM26.425013 174.73438Q26.659388 175.3125 26.831263 176.45312Q26.925013 177.10938 27.050013 177.375Q27.159388 177.64062 27.378138 177.79688Q27.596888 177.9375 27.878138 177.9375Q28.300013 177.9375 28.581263 177.625Q28.862513 177.29688 28.862513 176.6875Q28.862513 176.07812 28.596888 175.60938Q28.331263 175.125 27.862513 174.90625Q27.503138 174.73438 26.815638 174.73438L26.425013 174.73438ZM29.550013 170.5625L23.331263 172.46875L23.331263 171.375L26.925013 170.39062L28.253138 170.01562Q28.159388 169.98438 26.971888 169.6875L23.331263 168.70312L23.331263 167.625L26.940638 166.6875L28.128138 166.375L26.925013 166.01562L23.331263 164.95312L23.331263 163.92188L29.550013 165.875L29.550013 166.96875L25.815638 167.95312L24.768763 168.20312L29.550013 169.45312L29.550013 170.5625ZM32.08126 157.6875Q30.971888 158.5625 29.503138 159.17188Q28.018763 159.76562 26.440638 159.76562Q25.050013 159.76562 23.768763 159.32812Q22.284388 158.79688 20.815638 157.6875L20.815638 156.9375Q22.034388 157.64062 22.550013 157.875Q23.362513 158.23438 24.237513 158.4375Q25.331263 158.6875 26.440638 158.6875Q29.268763 158.6875 32.08126 156.9375L32.08126 157.6875ZM29.550013 155.70312L23.331263 155.70312L23.331263 154.76562L24.206263 154.76562Q23.737513 154.46875 23.471888 153.98438Q23.190638 153.5 23.190638 152.875Q23.190638 152.1875 23.471888 151.75Q23.753138 151.29688 24.268763 151.125Q23.190638 150.375 23.190638 149.20312Q23.190638 148.26562 23.706263 147.78125Q24.206263 147.28125 25.284388 147.28125L29.550013 147.28125L29.550013 148.32812L25.628138 148.32812Q25.003138 148.32812 24.721888 148.4375Q24.440638 148.53125 24.268763 148.79688Q24.096888 149.0625 24.096888 149.4375Q24.096888 150.09375 24.534388 150.53125Q24.971888 150.95312 25.940638 150.95312L29.550013 150.95312L29.550013 152.01562L25.503138 152.01562Q24.800013 152.01562 24.456263 152.28125Q24.096888 152.53125 24.096888 153.10938Q24.096888 153.5625 24.331263 153.9375Q24.565638 154.3125 25.018763 154.48438Q25.471888 154.65625 26.315638 154.65625L29.550013 154.65625L29.550013 155.70312ZM29.550013 145.51562L20.956263 142.21875L20.956263 141.0L29.550013 137.48438L29.550013 138.76562L26.940638 139.78125L26.940638 143.35938L29.550013 144.3125L29.550013 145.51562ZM26.018763 143.03125L26.018763 140.125L23.643763 141.01562Q22.565638 141.4375 21.862513 141.625Q22.690638 141.79688 23.503138 142.09375L26.018763 143.03125ZM32.08126 137.01562L32.08126 137.76562Q29.268763 136.01562 26.440638 136.01562Q25.346888 136.01562 24.253138 136.26562Q23.378138 136.46875 22.565638 136.82812Q22.050013 137.0625 20.815638 137.76562L20.815638 137.01562Q22.284388 135.92188 23.768763 135.39062Q25.050013 134.9375 26.440638 134.9375Q28.018763 134.9375 29.503138 135.54688Q30.971888 136.15625 32.08126 137.01562Z" fill-rule="nonzero"/><path fill="#000000" d="M65.05 318.21564Q65.05 316.6844 65.3625 315.7625Q65.675 314.825 66.28438 314.325Q66.90938 313.825 67.84688 313.825Q68.53438 313.825 69.05 314.10626Q69.58125 314.3875 69.925 314.91876Q70.26875 315.4344 70.45625 316.1844Q70.64375 316.9344 70.64375 318.21564Q70.64375 319.73126 70.33125 320.65314Q70.03438 321.575 69.40938 322.09064Q68.8 322.59064 67.84688 322.59064Q66.6125 322.59064 65.89375 321.7Q65.05 320.6375 65.05 318.21564ZM66.12813 318.21564Q66.12813 320.325 66.62813 321.02814Q67.12813 321.73126 67.84688 321.73126Q68.58125 321.73126 69.06563 321.02814Q69.56563 320.325 69.56563 318.21564Q69.56563 316.09064 69.06563 315.40314Q68.58125 314.7 67.83125 314.7Q67.1125 314.7 66.675 315.3094Q66.12813 316.09064 66.12813 318.21564Z" fill-rule="nonzero"/><path fill="#000000" d="M55.01875 249.225L53.971874 249.225L53.971874 242.50626Q53.58125 242.86563 52.95625 243.24063Q52.346874 243.6 51.8625 243.77188L51.8625 242.75626Q52.7375 242.33438 53.39375 241.75626Q54.065624 241.1625 54.346874 240.6L55.01875 240.6L55.01875 249.225ZM58.05 244.99063Q58.05 243.45938 58.3625 242.5375Q58.675 241.6 59.284374 241.1Q59.909374 240.6 60.846874 240.6Q61.534374 240.6 62.05 240.88126Q62.58125 241.1625 62.925 241.69376Q63.26875 242.20938 63.45625 242.95938Q63.64375 243.70938 63.64375 244.99063Q63.64375 246.50626 63.33125 247.42813Q63.034374 248.35 62.409374 248.86563Q61.8 249.36563 60.846874 249.36563Q59.6125 249.36563 58.89375 248.475Q58.05 247.4125 58.05 244.99063ZM59.128124 244.99063Q59.128124 247.1 59.628124 247.80313Q60.128124 248.50626 60.846874 248.50626Q61.58125 248.50626 62.065624 247.80313Q62.565624 247.1 62.565624 244.99063Q62.565624 242.86563 62.065624 242.17813Q61.58125 241.475 60.83125 241.475Q60.1125 241.475 59.675 242.08438Q59.128124 242.86563 59.128124 244.99063ZM65.05 244.99063Q65.05 243.45938 65.3625 242.5375Q65.675 241.6 66.28438 241.1Q66.90938 240.6 67.84688 240.6Q68.53438 240.6 69.05 240.88126Q69.58125 241.1625 69.925 241.69376Q70.26875 242.20938 70.45625 242.95938Q70.64375 243.70938 70.64375 244.99063Q70.64375 246.50626 70.33125 247.42813Q70.03438 248.35 69.40938 248.86563Q68.8 249.36563 67.84688 249.36563Q66.6125 249.36563 65.89375 248.475Q65.05 247.4125 65.05 244.99063ZM66.12813 244.99063Q66.12813 247.1 66.62813 247.80313Q67.12813 248.50626 67.84688 248.50626Q68.58125 248.50626 69.06563 247.80313Q69.56563 247.1 69.56563 244.99063Q69.56563 242.86563 69.06563 242.17813Q68.58125 241.475 67.83125 241.475Q67.1125 241.475 66.675 242.08438Q66.12813 242.86563 66.12813 244.99063Z" fill-rule="nonzero"/><path fill="#000000" d="M56.596874 174.98438L56.596874 176.0L50.909374 176.0Q50.909374 175.625 51.034374 175.26562Q51.253124 174.6875 51.721874 174.125Q52.20625 173.5625 53.1125 172.82812Q54.51875 171.67188 55.003124 171.0Q55.503124 170.32812 55.503124 169.73438Q55.503124 169.10938 55.05 168.6875Q54.596874 168.25 53.878124 168.25Q53.1125 168.25 52.659374 168.70312Q52.20625 169.15625 52.190624 169.96875L51.1125 169.85938Q51.221874 168.64062 51.940624 168.01562Q52.675 167.375 53.909374 167.375Q55.14375 167.375 55.8625 168.0625Q56.58125 168.75 56.58125 169.76562Q56.58125 170.28125 56.3625 170.78125Q56.159374 171.26562 55.659374 171.82812Q55.175 172.375 54.05 173.32812Q53.096874 174.125 52.815624 174.42188Q52.55 174.70312 52.378124 174.98438L56.596874 174.98438ZM58.05 171.76562Q58.05 170.23438 58.3625 169.3125Q58.675 168.375 59.284374 167.875Q59.909374 167.375 60.846874 167.375Q61.534374 167.375 62.05 167.65625Q62.58125 167.9375 62.925 168.46875Q63.26875 168.98438 63.45625 169.73438Q63.64375 170.48438 63.64375 171.76562Q63.64375 173.28125 63.33125 174.20312Q63.034374 175.125 62.409374 175.64062Q61.8 176.14062 60.846874 176.14062Q59.6125 176.14062 58.89375 175.25Q58.05 174.1875 58.05 171.76562ZM59.128124 171.76562Q59.128124 173.875 59.628124 174.57812Q60.128124 175.28125 60.846874 175.28125Q61.58125 175.28125 62.065624 174.57812Q62.565624 173.875 62.565624 171.76562Q62.565624 169.64062 62.065624 168.95312Q61.58125 168.25 60.83125 168.25Q60.1125 168.25 59.675 168.85938Q59.128124 169.64062 59.128124 171.76562ZM65.05 171.76562Q65.05 170.23438 65.3625 169.3125Q65.675 168.375 66.28438 167.875Q66.90938 167.375 67.84688 167.375Q68.53438 167.375 69.05 167.65625Q69.58125 167.9375 69.925 168.46875Q70.26875 168.98438 70.45625 169.73438Q70.64375 170.48438 70.64375 171.76562Q70.64375 173.28125 70.33125 174.20312Q70.03438 175.125 69.40938 175.64062Q68.8 176.14062 67.84688 176.14062Q66.6125 176.14062 65.89375 175.25Q65.05 174.1875 65.05 171.76562ZM66.12813 171.76562Q66.12813 173.875 66.62813 174.57812Q67.12813 175.28125 67.84688 175.28125Q68.58125 175.28125 69.06563 174.57812Q69.56563 173.875 69.56563 171.76562Q69.56563 169.64062 69.06563 168.95312Q68.58125 168.25 67.83125 168.25Q67.1125 168.25 66.675 168.85938Q66.12813 169.64062 66.12813 171.76562Z" fill-rule="nonzero"/><path fill="#000000" d="M51.05 100.50938L52.1125 100.36875Q52.284374 101.25938 52.721874 101.66563Q53.159374 102.05625 53.784374 102.05625Q54.534374 102.05625 55.05 101.54063Q55.565624 101.025 55.565624 100.25938Q55.565624 99.54063 55.08125 99.07188Q54.6125 98.5875 53.878124 98.5875Q53.58125 98.5875 53.128124 98.7125L53.253124 97.775Q53.3625 97.79063 53.425 97.79063Q54.096874 97.79063 54.628124 97.44688Q55.175 97.0875 55.175 96.35313Q55.175 95.775 54.784374 95.4Q54.39375 95.00938 53.76875 95.00938Q53.159374 95.00938 52.7375 95.4Q52.33125 95.79063 52.221874 96.55625L51.159374 96.36875Q51.346874 95.32188 52.034374 94.74375Q52.721874 94.15 53.7375 94.15Q54.440624 94.15 55.034374 94.4625Q55.628124 94.75938 55.940624 95.275Q56.253124 95.79063 56.253124 96.38438Q56.253124 96.93125 55.95625 97.4Q55.659374 97.85313 55.08125 98.11875Q55.83125 98.29063 56.253124 98.85313Q56.675 99.4 56.675 100.24375Q56.675 101.36875 55.846874 102.15Q55.034374 102.93125 53.784374 102.93125Q52.659374 102.93125 51.909374 102.25938Q51.159374 101.57188 51.05 100.50938ZM58.05 98.54063Q58.05 97.00938 58.3625 96.0875Q58.675 95.15 59.284374 94.65Q59.909374 94.15 60.846874 94.15Q61.534374 94.15 62.05 94.43125Q62.58125 94.7125 62.925 95.24375Q63.26875 95.75938 63.45625 96.50938Q63.64375 97.25938 63.64375 98.54063Q63.64375 100.05625 63.33125 100.97813Q63.034374 101.9 62.409374 102.41563Q61.8 102.91563 60.846874 102.91563Q59.6125 102.91563 58.89375 102.025Q58.05 100.9625 58.05 98.54063ZM59.128124 98.54063Q59.128124 100.65 59.628124 101.35313Q60.128124 102.05625 60.846874 102.05625Q61.58125 102.05625 62.065624 101.35313Q62.565624 100.65 62.565624 98.54063Q62.565624 96.41563 62.065624 95.72813Q61.58125 95.025 60.83125 95.025Q60.1125 95.025 59.675 95.63438Q59.128124 96.41563 59.128124 98.54063ZM65.05 98.54063Q65.05 97.00938 65.3625 96.0875Q65.675 95.15 66.28438 94.65Q66.90938 94.15 67.84688 94.15Q68.53438 94.15 69.05 94.43125Q69.58125 94.7125 69.925 95.24375Q70.26875 95.75938 70.45625 96.50938Q70.64375 97.25938 70.64375 98.54063Q70.64375 100.05625 70.33125 100.97813Q70.03438 101.9 69.40938 102.41563Q68.8 102.91563 67.84688 102.91563Q66.6125 102.91563 65.89375 102.025Q65.05 100.9625 65.05 98.54063ZM66.12813 98.54063Q66.12813 100.65 66.62813 101.35313Q67.12813 102.05625 67.84688 102.05625Q68.58125 102.05625 69.06563 101.35313Q69.56563 100.65 69.56563 98.54063Q69.56563 96.41563 69.06563 95.72813Q68.58125 95.025 67.83125 95.025Q67.1125 95.025 66.675 95.63438Q66.12813 96.41563 66.12813 98.54063Z" fill-rule="nonzero"/><path fill="#000000" d="M54.425 29.55L54.425 27.4875L50.70625 27.4875L50.70625 26.51875L54.628124 20.95625L55.4875 20.95625L55.4875 26.51875L56.64375 26.51875L56.64375 27.4875L55.4875 27.4875L55.4875 29.55L54.425 29.55ZM54.425 26.51875L54.425 22.659374L51.7375 26.51875L54.425 26.51875ZM58.05 25.315624Q58.05 23.784374 58.3625 22.8625Q58.675 21.925 59.284374 21.425Q59.909374 20.925 60.846874 20.925Q61.534374 20.925 62.05 21.20625Q62.58125 21.4875 62.925 22.01875Q63.26875 22.534374 63.45625 23.284374Q63.64375 24.034374 63.64375 25.315624Q63.64375 26.83125 63.33125 27.753124Q63.034374 28.675 62.409374 29.190624Q61.8 29.690624 60.846874 29.690624Q59.6125 29.690624 58.89375 28.8Q58.05 27.7375 58.05 25.315624ZM59.128124 25.315624Q59.128124 27.425 59.628124 28.128124Q60.128124 28.83125 60.846874 28.83125Q61.58125 28.83125 62.065624 28.128124Q62.565624 27.425 62.565624 25.315624Q62.565624 23.190624 62.065624 22.503124Q61.58125 21.8 60.83125 21.8Q60.1125 21.8 59.675 22.409374Q59.128124 23.190624 59.128124 25.315624ZM65.05 25.315624Q65.05 23.784374 65.3625 22.8625Q65.675 21.925 66.28438 21.425Q66.90938 20.925 67.84688 20.925Q68.53438 20.925 69.05 21.20625Q69.58125 21.4875 69.925 22.01875Q70.26875 22.534374 70.45625 23.284374Q70.64375 24.034374 70.64375 25.315624Q70.64375 26.83125 70.33125 27.753124Q70.03438 28.675 69.40938 29.190624Q68.8 29.690624 67.84688 29.690624Q66.6125 29.690624 65.89375 28.8Q65.05 27.7375 65.05 25.315624ZM66.12813 25.315624Q66.12813 27.425 66.62813 28.128124Q67.12813 28.83125 67.84688 28.83125Q68.58125 28.83125 69.06563 28.128124Q69.56563 27.425 69.56563 25.315624Q69.56563 23.190624 69.06563 22.503124Q68.58125 21.8 67.83125 21.8Q67.1125 21.8 66.675 22.409374Q66.12813 23.190624 66.12813 25.315624Z" fill-rule="nonzero"/><path fill="#000000" d="M113.00117 335.45L113.00117 326.85626L116.23554 326.85626Q117.21992 326.85626 117.81367 327.1219Q118.40742 327.3875 118.73554 327.9344Q119.07929 328.46564 119.07929 329.0594Q119.07929 329.60626 118.78242 330.09064Q118.48554 330.575 117.87617 330.8719Q118.65742 331.10626 119.06367 331.66876Q119.48554 332.21564 119.48554 332.96564Q119.48554 333.5594 119.23554 334.09064Q118.98554 334.60626 118.61054 334.8875Q118.23554 335.16876 117.65742 335.3094Q117.09492 335.45 116.28242 335.45L113.00117 335.45ZM114.14179 330.46564L116.00117 330.46564Q116.75117 330.46564 117.07929 330.3719Q117.51679 330.2469 117.73554 329.95Q117.95429 329.6375 117.95429 329.1844Q117.95429 328.7625 117.75117 328.4344Q117.54804 328.10626 117.15742 327.9969Q116.78242 327.8719 115.86054 327.8719L114.14179 327.8719L114.14179 330.46564ZM114.14179 334.4344L116.28242 334.4344Q116.82929 334.4344 117.04804 334.3875Q117.45429 334.325 117.70429 334.16876Q117.96992 333.9969 118.14179 333.6844Q118.31367 333.3719 118.31367 332.96564Q118.31367 332.48126 118.06367 332.1219Q117.82929 331.7625 117.39179 331.6219Q116.95429 331.48126 116.12617 331.48126L114.14179 331.48126L114.14179 334.4344ZM120.89179 335.45L120.89179 326.85626L121.95429 326.85626L121.95429 335.45L120.89179 335.45ZM127.98554 334.6844Q127.39179 335.1844 126.84492 335.3875Q126.31367 335.59064 125.68867 335.59064Q124.65742 335.59064 124.11054 335.09064Q123.56367 334.59064 123.56367 333.8094Q123.56367 333.35626 123.76679 332.98126Q123.96992 332.59064 124.31367 332.3719Q124.65742 332.1375 125.07929 332.02814Q125.37617 331.9344 126.01679 331.85626Q127.28242 331.71564 127.89179 331.4969Q127.89179 331.27814 127.89179 331.23126Q127.89179 330.575 127.59492 330.3094Q127.18867 329.96564 126.39179 329.96564Q125.65742 329.96564 125.29804 330.23126Q124.93867 330.48126 124.76679 331.1375L123.73554 330.9969Q123.87617 330.34064 124.20429 329.9344Q124.53242 329.52814 125.14179 329.3094Q125.75117 329.09064 126.54804 329.09064Q127.34492 329.09064 127.84492 329.27814Q128.34491 329.46564 128.57928 329.7469Q128.81366 330.02814 128.90741 330.46564Q128.95428 330.73126 128.95428 331.4344L128.95428 332.84064Q128.95428 334.3094 129.01678 334.7Q129.09491 335.09064 129.29803 335.45L128.18866 335.45Q128.03241 335.1219 127.98554 334.6844ZM127.89179 332.325Q127.31367 332.5594 126.17304 332.73126Q125.51679 332.825 125.25117 332.95Q124.98554 333.0594 124.82929 333.27814Q124.68867 333.4969 124.68867 333.77814Q124.68867 334.2 125.00117 334.48126Q125.32929 334.7625 125.93867 334.7625Q126.54804 334.7625 127.01679 334.4969Q127.50117 334.23126 127.71992 333.7625Q127.89179 333.40314 127.89179 332.71564L127.89179 332.325ZM134.98553 333.16876L136.01678 333.3094Q135.84491 334.3719 135.14178 334.98126Q134.43866 335.59064 133.42303 335.59064Q132.14178 335.59064 131.36053 334.7625Q130.59491 333.91876 130.59491 332.35626Q130.59491 331.35626 130.92303 330.60626Q131.26678 329.84064 131.93866 329.46564Q132.62616 329.09064 133.43866 329.09064Q134.43866 329.09064 135.07928 329.60626Q135.73553 330.10626 135.92303 331.0594L134.89178 331.21564Q134.75116 330.59064 134.37616 330.27814Q134.00116 329.95 133.46991 329.95Q132.67303 329.95 132.17303 330.52814Q131.67303 331.09064 131.67303 332.325Q131.67303 333.59064 132.15741 334.15314Q132.64178 334.71564 133.40741 334.71564Q134.03241 334.71564 134.43866 334.34064Q134.86053 333.96564 134.98553 333.16876ZM136.92303 335.45L136.92303 326.85626L137.98553 326.85626L137.98553 331.7625L140.46991 329.23126L141.84491 329.23126L139.45428 331.52814L142.07928 335.45L140.78241 335.45L138.71991 332.2625L137.98553 332.98126L137.98553 335.45L136.92303 335.45ZM147.93866 337.98126Q147.06366 336.8719 146.45428 335.40314Q145.86053 333.91876 145.86053 332.34064Q145.86053 330.95 146.29803 329.66876Q146.82928 328.1844 147.93866 326.71564L148.68866 326.71564Q147.98553 327.9344 147.75116 328.45Q147.39178 329.2625 147.18866 330.1375Q146.93866 331.23126 146.93866 332.34064Q146.93866 335.16876 148.68866 337.98126L147.93866 337.98126ZM150.01678 335.45L150.01678 326.85626L151.73553 326.85626L153.76678 332.9344Q154.04803 333.79376 154.17303 334.21564Q154.31366 333.7469 154.62616 332.84064L156.68866 326.85626L158.21991 326.85626L158.21991 335.45L157.12616 335.45L157.12616 328.2625L154.62616 335.45L153.59491 335.45L151.11053 328.1375L151.11053 335.45L150.01678 335.45ZM162.98553 334.6844Q162.39178 335.1844 161.84491 335.3875Q161.31366 335.59064 160.68866 335.59064Q159.65741 335.59064 159.11053 335.09064Q158.56366 334.59064 158.56366 333.8094Q158.56366 333.35626 158.76678 332.98126Q158.96991 332.59064 159.31366 332.3719Q159.65741 332.1375 160.07928 332.02814Q160.37616 331.9344 161.01678 331.85626Q162.28241 331.71564 162.89178 331.4969Q162.89178 331.27814 162.89178 331.23126Q162.89178 330.575 162.59491 330.3094Q162.18866 329.96564 161.39178 329.96564Q160.65741 329.96564 160.29803 330.23126Q159.93866 330.48126 159.76678 331.1375L158.73553 330.9969Q158.87616 330.34064 159.20428 329.9344Q159.53241 329.52814 160.14178 329.3094Q160.75116 329.09064 161.54803 329.09064Q162.34491 329.09064 162.84491 329.27814Q163.34491 329.46564 163.57928 329.7469Q163.81366 330.02814 163.90741 330.46564Q163.95428 330.73126 163.95428 331.4344L163.95428 332.84064Q163.95428 334.3094 164.01678 334.7Q164.09491 335.09064 164.29803 335.45L163.18866 335.45Q163.03241 335.1219 162.98553 334.6844ZM162.89178 332.325Q162.31366 332.5594 161.17303 332.73126Q160.51678 332.825 160.25116 332.95Q159.98553 333.0594 159.82928 333.27814Q159.68866 333.4969 159.68866 333.77814Q159.68866 334.2 160.00116 334.48126Q160.32928 334.7625 160.93866 334.7625Q161.54803 334.7625 162.01678 334.4969Q162.50116 334.23126 162.71991 333.7625Q162.89178 333.40314 162.89178 332.71564L162.89178 332.325ZM165.21991 335.45L167.48553 332.21564L165.39178 329.23126L166.70428 329.23126L167.65741 330.6844Q167.92303 331.10626 168.09491 331.3875Q168.34491 330.9969 168.56366 330.7L169.61053 329.23126L170.87616 329.23126L168.71991 332.15314L171.03241 335.45L169.75116 335.45L168.46991 333.5125L168.12616 332.9969L166.48553 335.45L165.21991 335.45Z" fill-rule="nonzero"/><path fill="#000000" d="M110.00117 349.45L110.00117 340.85626L113.23554 340.85626Q114.21992 340.85626 114.81367 341.1219Q115.40742 341.3875 115.73554 341.9344Q116.07929 342.46564 116.07929 343.0594Q116.07929 343.60626 115.78242 344.09064Q115.48554 344.575 114.87617 344.8719Q115.65742 345.10626 116.06367 345.66876Q116.48554 346.21564 116.48554 346.96564Q116.48554 347.5594 116.23554 348.09064Q115.98554 348.60626 115.61054 348.8875Q115.23554 349.16876 114.65742 349.3094Q114.09492 349.45 113.28242 349.45L110.00117 349.45ZM111.14179 344.46564L113.00117 344.46564Q113.75117 344.46564 114.07929 344.3719Q114.51679 344.2469 114.73554 343.95Q114.95429 343.6375 114.95429 343.1844Q114.95429 342.7625 114.75117 342.4344Q114.54804 342.10626 114.15742 341.9969Q113.78242 341.8719 112.86054 341.8719L111.14179 341.8719L111.14179 344.46564ZM111.14179 348.4344L113.28242 348.4344Q113.82929 348.4344 114.04804 348.3875Q114.45429 348.325 114.70429 348.16876Q114.96992 347.9969 115.14179 347.6844Q115.31367 347.3719 115.31367 346.96564Q115.31367 346.48126 115.06367 346.1219Q114.82929 345.7625 114.39179 345.6219Q113.95429 345.48126 113.12617 345.48126L111.14179 345.48126L111.14179 348.4344ZM117.90742 349.45L117.90742 343.23126L118.86054 343.23126L118.86054 344.16876Q119.21992 343.5125 119.51679 343.3094Q119.82929 343.09064 120.20429 343.09064Q120.73554 343.09064 121.28242 343.41876L120.92304 344.40314Q120.53242 344.16876 120.15742 344.16876Q119.79804 344.16876 119.51679 344.3875Q119.25117 344.59064 119.14179 344.96564Q118.95429 345.52814 118.95429 346.1844L118.95429 349.45L117.90742 349.45ZM121.92304 342.075L121.92304 340.85626L122.98554 340.85626L122.98554 342.075L121.92304 342.075ZM121.92304 349.45L121.92304 343.23126L122.98554 343.23126L122.98554 349.45L121.92304 349.45ZM124.71992 349.96564L125.75117 350.1219Q125.81367 350.59064 126.11054 350.8094Q126.50117 351.10626 127.17304 351.10626Q127.90742 351.10626 128.29803 350.8094Q128.70428 350.5125 128.84491 349.9969Q128.93866 349.66876 128.92303 348.6375Q128.23553 349.45 127.20429 349.45Q125.92304 349.45 125.21992 348.52814Q124.51679 347.59064 124.51679 346.3094Q124.51679 345.41876 124.82929 344.66876Q125.15742 343.90314 125.76679 343.4969Q126.37617 343.09064 127.20429 343.09064Q128.31366 343.09064 129.03241 343.98126L129.03241 343.23126L130.00116 343.23126L130.00116 348.60626Q130.00116 350.0594 129.70428 350.66876Q129.40741 351.27814 128.76678 351.6219Q128.12616 351.98126 127.18867 351.98126Q126.07929 351.98126 125.39179 351.48126Q124.70429 350.98126 124.71992 349.96564ZM125.59492 346.23126Q125.59492 347.45 126.07929 348.0125Q126.56367 348.575 127.29804 348.575Q128.03241 348.575 128.51678 348.0125Q129.01678 347.45 129.01678 346.2625Q129.01678 345.1219 128.50116 344.54376Q128.00116 343.96564 127.28242 343.96564Q126.57929 343.96564 126.07929 344.54376Q125.59492 345.10626 125.59492 346.23126ZM131.92303 349.45L131.92303 340.85626L132.96991 340.85626L132.96991 343.9344Q133.70428 343.09064 134.82928 343.09064Q135.53241 343.09064 136.03241 343.3719Q136.54803 343.6375 136.76678 344.1219Q136.98553 344.59064 136.98553 345.5125L136.98553 349.45L135.93866 349.45L135.93866 345.5125Q135.93866 344.71564 135.59491 344.35626Q135.25116 343.9969 134.62616 343.9969Q134.15741 343.9969 133.73553 344.2469Q133.32928 344.48126 133.14178 344.90314Q132.96991 345.3094 132.96991 346.04376L132.96991 349.45L131.92303 349.45ZM141.21991 348.5125L141.37616 349.4344Q140.92303 349.52814 140.57928 349.52814Q140.00116 349.52814 139.68866 349.35626Q139.37616 349.16876 139.23553 348.8719Q139.11053 348.575 139.11053 347.6219L139.11053 344.04376L138.34491 344.04376L138.34491 343.23126L139.11053 343.23126L139.11053 341.6844L140.15741 341.0594L140.15741 343.23126L141.21991 343.23126L141.21991 344.04376L140.15741 344.04376L140.15741 347.6844Q140.15741 348.1375 140.20428 348.2625Q140.26678 348.3875 140.39178 348.46564Q140.51678 348.54376 140.75116 348.54376Q140.93866 348.54376 141.21991 348.5125ZM141.92303 349.45L141.92303 343.23126L142.86053 343.23126L142.86053 344.10626Q143.54803 343.09064 144.84491 343.09064Q145.40741 343.09064 145.87616 343.29376Q146.36053 343.4969 146.59491 343.825Q146.82928 344.15314 146.92303 344.59064Q146.96991 344.8875 146.96991 345.6219L146.96991 349.45L145.92303 349.45L145.92303 345.66876Q145.92303 345.0125 145.79803 344.7Q145.67303 344.3875 145.36053 344.2Q145.04803 343.9969 144.62616 343.9969Q143.95428 343.9969 143.45428 344.4344Q142.96991 344.85626 142.96991 346.04376L142.96991 349.45L141.92303 349.45ZM153.17303 347.45L154.26678 347.575Q154.01678 348.52814 153.31366 349.0594Q152.61053 349.59064 151.53241 349.59064Q150.17303 349.59064 149.36053 348.7469Q148.56366 347.90314 148.56366 346.3875Q148.56366 344.825 149.37616 343.96564Q150.18866 343.09064 151.46991 343.09064Q152.71991 343.09064 153.50116 343.9344Q154.29803 344.77814 154.29803 346.325Q154.29803 346.41876 154.29803 346.60626L149.65741 346.60626Q149.71991 347.6375 150.23553 348.1844Q150.75116 348.71564 151.53241 348.71564Q152.11053 348.71564 152.51678 348.41876Q152.93866 348.10626 153.17303 347.45ZM149.71991 345.7469L153.18866 345.7469Q153.12616 344.95 152.79803 344.5594Q152.28241 343.95 151.48553 343.95Q150.75116 343.95 150.25116 344.4344Q149.76678 344.91876 149.71991 345.7469ZM155.50116 347.59064L156.53241 347.4344Q156.62616 348.0594 157.01678 348.3875Q157.42303 348.71564 158.15741 348.71564Q158.87616 348.71564 159.21991 348.4344Q159.57928 348.1375 159.57928 347.73126Q159.57928 347.3719 159.26678 347.16876Q159.04803 347.02814 158.18866 346.8094Q157.03241 346.5125 156.57928 346.3094Q156.14178 346.09064 155.90741 345.71564Q155.67303 345.34064 155.67303 344.8719Q155.67303 344.46564 155.86053 344.10626Q156.04803 343.7469 156.37616 343.5125Q156.62616 343.34064 157.04803 343.21564Q157.46991 343.09064 157.96991 343.09064Q158.68866 343.09064 159.23553 343.3094Q159.79803 343.5125 160.06366 343.8719Q160.32928 344.23126 160.42303 344.825L159.39178 344.96564Q159.32928 344.4969 158.98553 344.23126Q158.65741 343.95 158.03241 343.95Q157.31366 343.95 157.00116 344.2Q156.68866 344.4344 156.68866 344.7625Q156.68866 344.96564 156.81366 345.1219Q156.95428 345.29376 157.21991 345.40314Q157.37616 345.46564 158.15741 345.66876Q159.28241 345.98126 159.71991 346.16876Q160.15741 346.35626 160.40741 346.71564Q160.65741 347.075 160.65741 347.6219Q160.65741 348.15314 160.34491 348.6219Q160.04803 349.075 159.46991 349.34064Q158.89178 349.59064 158.15741 349.59064Q156.93866 349.59064 156.29803 349.09064Q155.67303 348.575 155.50116 347.59064ZM162.50116 347.59064L163.53241 347.4344Q163.62616 348.0594 164.01678 348.3875Q164.42303 348.71564 165.15741 348.71564Q165.87616 348.71564 166.21991 348.4344Q166.57928 348.1375 166.57928 347.73126Q166.57928 347.3719 166.26678 347.16876Q166.04803 347.02814 165.18866 346.8094Q164.03241 346.5125 163.57928 346.3094Q163.14178 346.09064 162.90741 345.71564Q162.67303 345.34064 162.67303 344.8719Q162.67303 344.46564 162.86053 344.10626Q163.04803 343.7469 163.37616 343.5125Q163.62616 343.34064 164.04803 343.21564Q164.46991 343.09064 164.96991 343.09064Q165.68866 343.09064 166.23553 343.3094Q166.79803 343.5125 167.06366 343.8719Q167.32928 344.23126 167.42303 344.825L166.39178 344.96564Q166.32928 344.4969 165.98553 344.23126Q165.65741 343.95 165.03241 343.95Q164.31366 343.95 164.00116 344.2Q163.68866 344.4344 163.68866 344.7625Q163.68866 344.96564 163.81366 345.1219Q163.95428 345.29376 164.21991 345.40314Q164.37616 345.46564 165.15741 345.66876Q166.28241 345.98126 166.71991 346.16876Q167.15741 346.35626 167.40741 346.71564Q167.65741 347.075 167.65741 347.6219Q167.65741 348.15314 167.34491 348.6219Q167.04803 349.075 166.46991 349.34064Q165.89178 349.59064 165.15741 349.59064Q163.93866 349.59064 163.29803 349.09064Q162.67303 348.575 162.50116 347.59064ZM170.61053 351.98126L169.86053 351.98126Q171.61053 349.16876 171.61053 346.34064Q171.61053 345.2469 171.36053 344.15314Q171.15741 343.27814 170.79803 342.46564Q170.56366 341.95 169.86053 340.71564L170.61053 340.71564Q171.70428 342.1844 172.23553 343.66876Q172.68866 344.95 172.68866 346.34064Q172.68866 347.91876 172.07928 349.40314Q171.46991 350.8719 170.61053 351.98126Z" fill-rule="nonzero"/><path fill="#000000" d="M210.75058 335.45L210.75058 326.85626L214.56308 326.85626Q215.71933 326.85626 216.31308 327.09064Q216.90683 327.325 217.2662 327.91876Q217.62558 328.4969 217.62558 329.2Q217.62558 330.1219 217.03183 330.7469Q216.43808 331.3719 215.2037 331.54376Q215.65683 331.7625 215.8912 331.96564Q216.3912 332.41876 216.8287 333.10626L218.3287 335.45L216.8912 335.45L215.7662 333.66876Q215.2662 332.8875 214.93808 332.48126Q214.62558 332.075 214.35995 331.91876Q214.10995 331.7469 213.84433 331.66876Q213.65683 331.6375 213.21933 331.6375L211.8912 331.6375L211.8912 335.45L210.75058 335.45ZM211.8912 330.65314L214.34433 330.65314Q215.10995 330.65314 215.54745 330.4969Q216.00058 330.325 216.21933 329.98126Q216.4537 329.6219 216.4537 329.2Q216.4537 328.59064 216.00058 328.2Q215.56308 327.8094 214.60995 327.8094L211.8912 327.8094L211.8912 330.65314ZM223.85995 333.45L224.9537 333.575Q224.7037 334.52814 224.00058 335.0594Q223.29745 335.59064 222.21933 335.59064Q220.85995 335.59064 220.04745 334.7469Q219.25058 333.90314 219.25058 332.3875Q219.25058 330.825 220.06308 329.96564Q220.87558 329.09064 222.15683 329.09064Q223.40683 329.09064 224.18808 329.9344Q224.98495 330.77814 224.98495 332.325Q224.98495 332.41876 224.98495 332.60626L220.34433 332.60626Q220.40683 333.6375 220.92245 334.1844Q221.43808 334.71564 222.21933 334.71564Q222.79745 334.71564 223.2037 334.41876Q223.62558 334.10626 223.85995 333.45ZM220.40683 331.7469L223.87558 331.7469Q223.81308 330.95 223.48495 330.5594Q222.96933 329.95 222.17245 329.95Q221.43808 329.95 220.93808 330.4344Q220.4537 330.91876 220.40683 331.7469ZM230.6412 335.45L230.6412 334.66876Q230.04745 335.59064 228.90683 335.59064Q228.15683 335.59064 227.53183 335.1844Q226.90683 334.7625 226.56308 334.02814Q226.21933 333.29376 226.21933 332.34064Q226.21933 331.41876 226.53183 330.65314Q226.84433 329.8875 227.46933 329.4969Q228.09433 329.09064 228.85995 329.09064Q229.42245 329.09064 229.85995 329.325Q230.29745 329.5594 230.5787 329.9344L230.5787 326.85626L231.62558 326.85626L231.62558 335.45L230.6412 335.45ZM227.31308 332.34064Q227.31308 333.54376 227.81308 334.1375Q228.31308 334.71564 229.00058 334.71564Q229.68808 334.71564 230.17245 334.15314Q230.65683 333.59064 230.65683 332.4344Q230.65683 331.15314 230.15683 330.5594Q229.67245 329.96564 228.9537 329.96564Q228.25058 329.96564 227.78183 330.54376Q227.31308 331.10626 227.31308 332.34064ZM238.62558 337.98126Q237.75058 336.8719 237.1412 335.40314Q236.54745 333.91876 236.54745 332.34064Q236.54745 330.95 236.98495 329.66876Q237.5162 328.1844 238.62558 326.71564L239.37558 326.71564Q238.67245 327.9344 238.43808 328.45Q238.0787 329.2625 237.87558 330.1375Q237.62558 331.23126 237.62558 332.34064Q237.62558 335.16876 239.37558 337.98126L238.62558 337.98126ZM240.7037 335.45L240.7037 326.85626L242.42245 326.85626L244.4537 332.9344Q244.73495 333.79376 244.85995 334.21564Q245.00058 333.7469 245.31308 332.84064L247.37558 326.85626L248.90683 326.85626L248.90683 335.45L247.81308 335.45L247.81308 328.2625L245.31308 335.45L244.28183 335.45L241.79745 328.1375L241.79745 335.45L240.7037 335.45ZM253.67245 334.6844Q253.0787 335.1844 252.53183 335.3875Q252.00058 335.59064 251.37558 335.59064Q250.34433 335.59064 249.79745 335.09064Q249.25058 334.59064 249.25058 333.8094Q249.25058 333.35626 249.4537 332.98126Q249.65683 332.59064 250.00058 332.3719Q250.34433 332.1375 250.7662 332.02814Q251.06308 331.9344 251.7037 331.85626Q252.96933 331.71564 253.5787 331.4969Q253.5787 331.27814 253.5787 331.23126Q253.5787 330.575 253.28183 330.3094Q252.87558 329.96564 252.0787 329.96564Q251.34433 329.96564 250.98495 330.23126Q250.62558 330.48126 250.4537 331.1375L249.42245 330.9969Q249.56308 330.34064 249.8912 329.9344Q250.21933 329.52814 250.8287 329.3094Q251.43808 329.09064 252.23495 329.09064Q253.03183 329.09064 253.53183 329.27814Q254.03183 329.46564 254.2662 329.7469Q254.50058 330.02814 254.59433 330.46564Q254.6412 330.73126 254.6412 331.4344L254.6412 332.84064Q254.6412 334.3094 254.7037 334.7Q254.78183 335.09064 254.98495 335.45L253.87558 335.45Q253.71933 335.1219 253.67245 334.6844ZM253.5787 332.325Q253.00058 332.5594 251.85995 332.73126Q251.2037 332.825 250.93808 332.95Q250.67245 333.0594 250.5162 333.27814Q250.37558 333.4969 250.37558 333.77814Q250.37558 334.2 250.68808 334.48126Q251.0162 334.7625 251.62558 334.7625Q252.23495 334.7625 252.7037 334.4969Q253.18808 334.23126 253.40683 333.7625Q253.5787 333.40314 253.5787 332.71564L253.5787 332.325ZM255.90683 335.45L258.17245 332.21564L256.0787 329.23126L257.3912 329.23126L258.34433 330.6844Q258.60995 331.10626 258.78183 331.3875Q259.03183 330.9969 259.25058 330.7L260.29745 329.23126L261.56308 329.23126L259.40683 332.15314L261.71933 335.45L260.43808 335.45L259.15683 333.5125L258.81308 332.9969L257.17245 335.45L255.90683 335.45Z" fill-rule="nonzero"/><path fill="#000000" d="M204.18808 349.45L204.18808 340.85626L207.42245 340.85626Q208.40683 340.85626 209.00058 341.1219Q209.59433 341.3875 209.92245 341.9344Q210.2662 342.46564 210.2662 343.0594Q210.2662 343.60626 209.96933 344.09064Q209.67245 344.575 209.06308 344.8719Q209.84433 345.10626 210.25058 345.66876Q210.67245 346.21564 210.67245 346.96564Q210.67245 347.5594 210.42245 348.09064Q210.17245 348.60626 209.79745 348.8875Q209.42245 349.16876 208.84433 349.3094Q208.28183 349.45 207.46933 349.45L204.18808 349.45ZM205.3287 344.46564L207.18808 344.46564Q207.93808 344.46564 208.2662 344.3719Q208.7037 344.2469 208.92245 343.95Q209.1412 343.6375 209.1412 343.1844Q209.1412 342.7625 208.93808 342.4344Q208.73495 342.10626 208.34433 341.9969Q207.96933 341.8719 207.04745 341.8719L205.3287 341.8719L205.3287 344.46564ZM205.3287 348.4344L207.46933 348.4344Q208.0162 348.4344 208.23495 348.3875Q208.6412 348.325 208.8912 348.16876Q209.15683 347.9969 209.3287 347.6844Q209.50058 347.3719 209.50058 346.96564Q209.50058 346.48126 209.25058 346.1219Q209.0162 345.7625 208.5787 345.6219Q208.1412 345.48126 207.31308 345.48126L205.3287 345.48126L205.3287 348.4344ZM212.09433 349.45L212.09433 343.23126L213.04745 343.23126L213.04745 344.16876Q213.40683 343.5125 213.7037 343.3094Q214.0162 343.09064 214.3912 343.09064Q214.92245 343.09064 215.46933 343.41876L215.10995 344.40314Q214.71933 344.16876 214.34433 344.16876Q213.98495 344.16876 213.7037 344.3875Q213.43808 344.59064 213.3287 344.96564Q213.1412 345.52814 213.1412 346.1844L213.1412 349.45L212.09433 349.45ZM216.10995 342.075L216.10995 340.85626L217.17245 340.85626L217.17245 342.075L216.10995 342.075ZM216.10995 349.45L216.10995 343.23126L217.17245 343.23126L217.17245 349.45L216.10995 349.45ZM218.90683 349.96564L219.93808 350.1219Q220.00058 350.59064 220.29745 350.8094Q220.68808 351.10626 221.35995 351.10626Q222.09433 351.10626 222.48495 350.8094Q222.8912 350.5125 223.03183 349.9969Q223.12558 349.66876 223.10995 348.6375Q222.42245 349.45 221.3912 349.45Q220.10995 349.45 219.40683 348.52814Q218.7037 347.59064 218.7037 346.3094Q218.7037 345.41876 219.0162 344.66876Q219.34433 343.90314 219.9537 343.4969Q220.56308 343.09064 221.3912 343.09064Q222.50058 343.09064 223.21933 343.98126L223.21933 343.23126L224.18808 343.23126L224.18808 348.60626Q224.18808 350.0594 223.8912 350.66876Q223.59433 351.27814 222.9537 351.6219Q222.31308 351.98126 221.37558 351.98126Q220.2662 351.98126 219.5787 351.48126Q218.8912 350.98126 218.90683 349.96564ZM219.78183 346.23126Q219.78183 347.45 220.2662 348.0125Q220.75058 348.575 221.48495 348.575Q222.21933 348.575 222.7037 348.0125Q223.2037 347.45 223.2037 346.2625Q223.2037 345.1219 222.68808 344.54376Q222.18808 343.96564 221.46933 343.96564Q220.7662 343.96564 220.2662 344.54376Q219.78183 345.10626 219.78183 346.23126ZM226.10995 349.45L226.10995 340.85626L227.15683 340.85626L227.15683 343.9344Q227.8912 343.09064 229.0162 343.09064Q229.71933 343.09064 230.21933 343.3719Q230.73495 343.6375 230.9537 344.1219Q231.17245 344.59064 231.17245 345.5125L231.17245 349.45L230.12558 349.45L230.12558 345.5125Q230.12558 344.71564 229.78183 344.35626Q229.43808 343.9969 228.81308 343.9969Q228.34433 343.9969 227.92245 344.2469Q227.5162 344.48126 227.3287 344.90314Q227.15683 345.3094 227.15683 346.04376L227.15683 349.45L226.10995 349.45ZM235.40683 348.5125L235.56308 349.4344Q235.10995 349.52814 234.7662 349.52814Q234.18808 349.52814 233.87558 349.35626Q233.56308 349.16876 233.42245 348.8719Q233.29745 348.575 233.29745 347.6219L233.29745 344.04376L232.53183 344.04376L232.53183 343.23126L233.29745 343.23126L233.29745 341.6844L234.34433 341.0594L234.34433 343.23126L235.40683 343.23126L235.40683 344.04376L234.34433 344.04376L234.34433 347.6844Q234.34433 348.1375 234.3912 348.2625Q234.4537 348.3875 234.5787 348.46564Q234.7037 348.54376 234.93808 348.54376Q235.12558 348.54376 235.40683 348.5125ZM236.10995 349.45L236.10995 343.23126L237.04745 343.23126L237.04745 344.10626Q237.73495 343.09064 239.03183 343.09064Q239.59433 343.09064 240.06308 343.29376Q240.54745 343.4969 240.78183 343.825Q241.0162 344.15314 241.10995 344.59064Q241.15683 344.8875 241.15683 345.6219L241.15683 349.45L240.10995 349.45L240.10995 345.66876Q240.10995 345.0125 239.98495 344.7Q239.85995 344.3875 239.54745 344.2Q239.23495 343.9969 238.81308 343.9969Q238.1412 343.9969 237.6412 344.4344Q237.15683 344.85626 237.15683 346.04376L237.15683 349.45L236.10995 349.45ZM247.35995 347.45L248.4537 347.575Q248.2037 348.52814 247.50058 349.0594Q246.79745 349.59064 245.71933 349.59064Q244.35995 349.59064 243.54745 348.7469Q242.75058 347.90314 242.75058 346.3875Q242.75058 344.825 243.56308 343.96564Q244.37558 343.09064 245.65683 343.09064Q246.90683 343.09064 247.68808 343.9344Q248.48495 344.77814 248.48495 346.325Q248.48495 346.41876 248.48495 346.60626L243.84433 346.60626Q243.90683 347.6375 244.42245 348.1844Q244.93808 348.71564 245.71933 348.71564Q246.29745 348.71564 246.7037 348.41876Q247.12558 348.10626 247.35995 347.45ZM243.90683 345.7469L247.37558 345.7469Q247.31308 344.95 246.98495 344.5594Q246.46933 343.95 245.67245 343.95Q244.93808 343.95 244.43808 344.4344Q243.9537 344.91876 243.90683 345.7469ZM249.68808 347.59064L250.71933 347.4344Q250.81308 348.0594 251.2037 348.3875Q251.60995 348.71564 252.34433 348.71564Q253.06308 348.71564 253.40683 348.4344Q253.7662 348.1375 253.7662 347.73126Q253.7662 347.3719 253.4537 347.16876Q253.23495 347.02814 252.37558 346.8094Q251.21933 346.5125 250.7662 346.3094Q250.3287 346.09064 250.09433 345.71564Q249.85995 345.34064 249.85995 344.8719Q249.85995 344.46564 250.04745 344.10626Q250.23495 343.7469 250.56308 343.5125Q250.81308 343.34064 251.23495 343.21564Q251.65683 343.09064 252.15683 343.09064Q252.87558 343.09064 253.42245 343.3094Q253.98495 343.5125 254.25058 343.8719Q254.5162 344.23126 254.60995 344.825L253.5787 344.96564Q253.5162 344.4969 253.17245 344.23126Q252.84433 343.95 252.21933 343.95Q251.50058 343.95 251.18808 344.2Q250.87558 344.4344 250.87558 344.7625Q250.87558 344.96564 251.00058 345.1219Q251.1412 345.29376 251.40683 345.40314Q251.56308 345.46564 252.34433 345.66876Q253.46933 345.98126 253.90683 346.16876Q254.34433 346.35626 254.59433 346.71564Q254.84433 347.075 254.84433 347.6219Q254.84433 348.15314 254.53183 348.6219Q254.23495 349.075 253.65683 349.34064Q253.0787 349.59064 252.34433 349.59064Q251.12558 349.59064 250.48495 349.09064Q249.85995 348.575 249.68808 347.59064ZM256.68808 347.59064L257.71933 347.4344Q257.81308 348.0594 258.2037 348.3875Q258.60995 348.71564 259.34433 348.71564Q260.06308 348.71564 260.40683 348.4344Q260.7662 348.1375 260.7662 347.73126Q260.7662 347.3719 260.4537 347.16876Q260.23495 347.02814 259.37558 346.8094Q258.21933 346.5125 257.7662 346.3094Q257.3287 346.09064 257.09433 345.71564Q256.85995 345.34064 256.85995 344.8719Q256.85995 344.46564 257.04745 344.10626Q257.23495 343.7469 257.56308 343.5125Q257.81308 343.34064 258.23495 343.21564Q258.65683 343.09064 259.15683 343.09064Q259.87558 343.09064 260.42245 343.3094Q260.98495 343.5125 261.25058 343.8719Q261.5162 344.23126 261.60995 344.825L260.5787 344.96564Q260.5162 344.4969 260.17245 344.23126Q259.84433 343.95 259.21933 343.95Q258.50058 343.95 258.18808 344.2Q257.87558 344.4344 257.87558 344.7625Q257.87558 344.96564 258.00058 345.1219Q258.1412 345.29376 258.40683 345.40314Q258.56308 345.46564 259.34433 345.66876Q260.46933 345.98126 260.90683 346.16876Q261.34433 346.35626 261.59433 346.71564Q261.84433 347.075 261.84433 347.6219Q261.84433 348.15314 261.53183 348.6219Q261.23495 349.075 260.65683 349.34064Q260.0787 349.59064 259.34433 349.59064Q258.12558 349.59064 257.48495 349.09064Q256.85995 348.575 256.68808 347.59064ZM264.79745 351.98126L264.04745 351.98126Q265.79745 349.16876 265.79745 346.34064Q265.79745 345.2469 265.54745 344.15314Q265.34433 343.27814 264.98495 342.46564Q264.75058 341.95 264.04745 340.71564L264.79745 340.71564Q265.8912 342.1844 266.42245 343.66876Q266.87558 344.95 266.87558 346.34064Q266.87558 347.91876 266.2662 349.40314Q265.65683 350.8719 264.79745 351.98126Z" fill-rule="nonzero"/><path fill="#000000" d="M303.45312 332.075L303.45312 331.075L307.07812 331.0594L307.07812 334.2469Q306.25 334.91876 305.35938 335.2625Q304.46875 335.59064 303.53125 335.59064Q302.26562 335.59064 301.21875 335.0594Q300.1875 334.5125 299.65625 333.4969Q299.14062 332.46564 299.14062 331.2Q299.14062 329.9344 299.65625 328.85626Q300.1875 327.7625 301.17188 327.2469Q302.15625 326.71564 303.4375 326.71564Q304.375 326.71564 305.125 327.0125Q305.875 327.3094 306.29688 327.85626Q306.73438 328.3875 306.95312 329.2625L305.9375 329.54376Q305.73438 328.8875 305.4375 328.5125Q305.15625 328.1375 304.625 327.91876Q304.09375 327.6844 303.45312 327.6844Q302.67188 327.6844 302.09375 327.91876Q301.53125 328.15314 301.17188 328.54376Q300.82812 328.9344 300.64062 329.40314Q300.3125 330.2 300.3125 331.1219Q300.3125 332.27814 300.70312 333.0594Q301.10938 333.825 301.85938 334.2Q302.60938 334.575 303.46875 334.575Q304.20312 334.575 304.90625 334.29376Q305.60938 333.9969 305.96875 333.6844L305.96875 332.075L303.45312 332.075ZM308.28125 335.45L308.28125 329.23126L309.23438 329.23126L309.23438 330.16876Q309.59375 329.5125 309.89062 329.3094Q310.20312 329.09064 310.57812 329.09064Q311.10938 329.09064 311.65625 329.41876L311.29688 330.40314Q310.90625 330.16876 310.53125 330.16876Q310.17188 330.16876 309.89062 330.3875Q309.625 330.59064 309.51562 330.96564Q309.32812 331.52814 309.32812 332.1844L309.32812 335.45L308.28125 335.45ZM316.54688 333.45L317.64062 333.575Q317.39062 334.52814 316.6875 335.0594Q315.98438 335.59064 314.90625 335.59064Q313.54688 335.59064 312.73438 334.7469Q311.9375 333.90314 311.9375 332.3875Q311.9375 330.825 312.75 329.96564Q313.5625 329.09064 314.84375 329.09064Q316.09375 329.09064 316.875 329.9344Q317.67188 330.77814 317.67188 332.325Q317.67188 332.41876 317.67188 332.60626L313.03125 332.60626Q313.09375 333.6375 313.60938 334.1844Q314.125 334.71564 314.90625 334.71564Q315.48438 334.71564 315.89062 334.41876Q316.3125 334.10626 316.54688 333.45ZM313.09375 331.7469L316.5625 331.7469Q316.5 330.95 316.17188 330.5594Q315.65625 329.95 314.85938 329.95Q314.125 329.95 313.625 330.4344Q313.14062 330.91876 313.09375 331.7469ZM323.54688 333.45L324.64062 333.575Q324.39062 334.52814 323.6875 335.0594Q322.98438 335.59064 321.90625 335.59064Q320.54688 335.59064 319.73438 334.7469Q318.9375 333.90314 318.9375 332.3875Q318.9375 330.825 319.75 329.96564Q320.5625 329.09064 321.84375 329.09064Q323.09375 329.09064 323.875 329.9344Q324.67188 330.77814 324.67188 332.325Q324.67188 332.41876 324.67188 332.60626L320.03125 332.60626Q320.09375 333.6375 320.60938 334.1844Q321.125 334.71564 321.90625 334.71564Q322.48438 334.71564 322.89062 334.41876Q323.3125 334.10626 323.54688 333.45ZM320.09375 331.7469L323.5625 331.7469Q323.5 330.95 323.17188 330.5594Q322.65625 329.95 321.85938 329.95Q321.125 329.95 320.625 330.4344Q320.14062 330.91876 320.09375 331.7469ZM326.29688 335.45L326.29688 329.23126L327.23438 329.23126L327.23438 330.10626Q327.92188 329.09064 329.21875 329.09064Q329.78125 329.09064 330.25 329.29376Q330.73438 329.4969 330.96875 329.825Q331.20312 330.15314 331.29688 330.59064Q331.34375 330.8875 331.34375 331.6219L331.34375 335.45L330.29688 335.45L330.29688 331.66876Q330.29688 331.0125 330.17188 330.7Q330.04688 330.3875 329.73438 330.2Q329.42188 329.9969 329.0 329.9969Q328.32812 329.9969 327.82812 330.4344Q327.34375 330.85626 327.34375 332.04376L327.34375 335.45L326.29688 335.45ZM338.3125 337.98126Q337.4375 336.8719 336.82812 335.40314Q336.23438 333.91876 336.23438 332.34064Q336.23438 330.95 336.67188 329.66876Q337.20312 328.1844 338.3125 326.71564L339.0625 326.71564Q338.35938 327.9344 338.125 328.45Q337.76562 329.2625 337.5625 330.1375Q337.3125 331.23126 337.3125 332.34064Q337.3125 335.16876 339.0625 337.98126L338.3125 337.98126ZM340.39062 335.45L340.39062 326.85626L342.10938 326.85626L344.14062 332.9344Q344.42188 333.79376 344.54688 334.21564Q344.6875 333.7469 345.0 332.84064L347.0625 326.85626L348.59375 326.85626L348.59375 335.45L347.5 335.45L347.5 328.2625L345.0 335.45L343.96875 335.45L341.48438 328.1375L341.48438 335.45L340.39062 335.45ZM353.35938 334.6844Q352.76562 335.1844 352.21875 335.3875Q351.6875 335.59064 351.0625 335.59064Q350.03125 335.59064 349.48438 335.09064Q348.9375 334.59064 348.9375 333.8094Q348.9375 333.35626 349.14062 332.98126Q349.34375 332.59064 349.6875 332.3719Q350.03125 332.1375 350.45312 332.02814Q350.75 331.9344 351.39062 331.85626Q352.65625 331.71564 353.26562 331.4969Q353.26562 331.27814 353.26562 331.23126Q353.26562 330.575 352.96875 330.3094Q352.5625 329.96564 351.76562 329.96564Q351.03125 329.96564 350.67188 330.23126Q350.3125 330.48126 350.14062 331.1375L349.10938 330.9969Q349.25 330.34064 349.57812 329.9344Q349.90625 329.52814 350.51562 329.3094Q351.125 329.09064 351.92188 329.09064Q352.71875 329.09064 353.21875 329.27814Q353.71875 329.46564 353.95312 329.7469Q354.1875 330.02814 354.28125 330.46564Q354.32812 330.73126 354.32812 331.4344L354.32812 332.84064Q354.32812 334.3094 354.39062 334.7Q354.46875 335.09064 354.67188 335.45L353.5625 335.45Q353.40625 335.1219 353.35938 334.6844ZM353.26562 332.325Q352.6875 332.5594 351.54688 332.73126Q350.89062 332.825 350.625 332.95Q350.35938 333.0594 350.20312 333.27814Q350.0625 333.4969 350.0625 333.77814Q350.0625 334.2 350.375 334.48126Q350.70312 334.7625 351.3125 334.7625Q351.92188 334.7625 352.39062 334.4969Q352.875 334.23126 353.09375 333.7625Q353.26562 333.40314 353.26562 332.71564L353.26562 332.325ZM355.59375 335.45L357.85938 332.21564L355.76562 329.23126L357.07812 329.23126L358.03125 330.6844Q358.29688 331.10626 358.46875 331.3875Q358.71875 330.9969 358.9375 330.7L359.98438 329.23126L361.25 329.23126L359.09375 332.15314L361.40625 335.45L360.125 335.45L358.84375 333.5125L358.5 332.9969L356.85938 335.45L355.59375 335.45Z" fill-rule="nonzero"/><path fill="#000000" d="M298.375 349.45L298.375 340.85626L301.60938 340.85626Q302.59375 340.85626 303.1875 341.1219Q303.78125 341.3875 304.10938 341.9344Q304.45312 342.46564 304.45312 343.0594Q304.45312 343.60626 304.15625 344.09064Q303.85938 344.575 303.25 344.8719Q304.03125 345.10626 304.4375 345.66876Q304.85938 346.21564 304.85938 346.96564Q304.85938 347.5594 304.60938 348.09064Q304.35938 348.60626 303.98438 348.8875Q303.60938 349.16876 303.03125 349.3094Q302.46875 349.45 301.65625 349.45L298.375 349.45ZM299.51562 344.46564L301.375 344.46564Q302.125 344.46564 302.45312 344.3719Q302.89062 344.2469 303.10938 343.95Q303.32812 343.6375 303.32812 343.1844Q303.32812 342.7625 303.125 342.4344Q302.92188 342.10626 302.53125 341.9969Q302.15625 341.8719 301.23438 341.8719L299.51562 341.8719L299.51562 344.46564ZM299.51562 348.4344L301.65625 348.4344Q302.20312 348.4344 302.42188 348.3875Q302.82812 348.325 303.07812 348.16876Q303.34375 347.9969 303.51562 347.6844Q303.6875 347.3719 303.6875 346.96564Q303.6875 346.48126 303.4375 346.1219Q303.20312 345.7625 302.76562 345.6219Q302.32812 345.48126 301.5 345.48126L299.51562 345.48126L299.51562 348.4344ZM306.28125 349.45L306.28125 343.23126L307.23438 343.23126L307.23438 344.16876Q307.59375 343.5125 307.89062 343.3094Q308.20312 343.09064 308.57812 343.09064Q309.10938 343.09064 309.65625 343.41876L309.29688 344.40314Q308.90625 344.16876 308.53125 344.16876Q308.17188 344.16876 307.89062 344.3875Q307.625 344.59064 307.51562 344.96564Q307.32812 345.52814 307.32812 346.1844L307.32812 349.45L306.28125 349.45ZM310.29688 342.075L310.29688 340.85626L311.35938 340.85626L311.35938 342.075L310.29688 342.075ZM310.29688 349.45L310.29688 343.23126L311.35938 343.23126L311.35938 349.45L310.29688 349.45ZM313.09375 349.96564L314.125 350.1219Q314.1875 350.59064 314.48438 350.8094Q314.875 351.10626 315.54688 351.10626Q316.28125 351.10626 316.67188 350.8094Q317.07812 350.5125 317.21875 349.9969Q317.3125 349.66876 317.29688 348.6375Q316.60938 349.45 315.57812 349.45Q314.29688 349.45 313.59375 348.52814Q312.89062 347.59064 312.89062 346.3094Q312.89062 345.41876 313.20312 344.66876Q313.53125 343.90314 314.14062 343.4969Q314.75 343.09064 315.57812 343.09064Q316.6875 343.09064 317.40625 343.98126L317.40625 343.23126L318.375 343.23126L318.375 348.60626Q318.375 350.0594 318.07812 350.66876Q317.78125 351.27814 317.14062 351.6219Q316.5 351.98126 315.5625 351.98126Q314.45312 351.98126 313.76562 351.48126Q313.07812 350.98126 313.09375 349.96564ZM313.96875 346.23126Q313.96875 347.45 314.45312 348.0125Q314.9375 348.575 315.67188 348.575Q316.40625 348.575 316.89062 348.0125Q317.39062 347.45 317.39062 346.2625Q317.39062 345.1219 316.875 344.54376Q316.375 343.96564 315.65625 343.96564Q314.95312 343.96564 314.45312 344.54376Q313.96875 345.10626 313.96875 346.23126ZM320.29688 349.45L320.29688 340.85626L321.34375 340.85626L321.34375 343.9344Q322.07812 343.09064 323.20312 343.09064Q323.90625 343.09064 324.40625 343.3719Q324.92188 343.6375 325.14062 344.1219Q325.35938 344.59064 325.35938 345.5125L325.35938 349.45L324.3125 349.45L324.3125 345.5125Q324.3125 344.71564 323.96875 344.35626Q323.625 343.9969 323.0 343.9969Q322.53125 343.9969 322.10938 344.2469Q321.70312 344.48126 321.51562 344.90314Q321.34375 345.3094 321.34375 346.04376L321.34375 349.45L320.29688 349.45ZM329.59375 348.5125L329.75 349.4344Q329.29688 349.52814 328.95312 349.52814Q328.375 349.52814 328.0625 349.35626Q327.75 349.16876 327.60938 348.8719Q327.48438 348.575 327.48438 347.6219L327.48438 344.04376L326.71875 344.04376L326.71875 343.23126L327.48438 343.23126L327.48438 341.6844L328.53125 341.0594L328.53125 343.23126L329.59375 343.23126L329.59375 344.04376L328.53125 344.04376L328.53125 347.6844Q328.53125 348.1375 328.57812 348.2625Q328.64062 348.3875 328.76562 348.46564Q328.89062 348.54376 329.125 348.54376Q329.3125 348.54376 329.59375 348.5125ZM330.29688 349.45L330.29688 343.23126L331.23438 343.23126L331.23438 344.10626Q331.92188 343.09064 333.21875 343.09064Q333.78125 343.09064 334.25 343.29376Q334.73438 343.4969 334.96875 343.825Q335.20312 344.15314 335.29688 344.59064Q335.34375 344.8875 335.34375 345.6219L335.34375 349.45L334.29688 349.45L334.29688 345.66876Q334.29688 345.0125 334.17188 344.7Q334.04688 344.3875 333.73438 344.2Q333.42188 343.9969 333.0 343.9969Q332.32812 343.9969 331.82812 344.4344Q331.34375 344.85626 331.34375 346.04376L331.34375 349.45L330.29688 349.45ZM341.54688 347.45L342.64062 347.575Q342.39062 348.52814 341.6875 349.0594Q340.98438 349.59064 339.90625 349.59064Q338.54688 349.59064 337.73438 348.7469Q336.9375 347.90314 336.9375 346.3875Q336.9375 344.825 337.75 343.96564Q338.5625 343.09064 339.84375 343.09064Q341.09375 343.09064 341.875 343.9344Q342.67188 344.77814 342.67188 346.325Q342.67188 346.41876 342.67188 346.60626L338.03125 346.60626Q338.09375 347.6375 338.60938 348.1844Q339.125 348.71564 339.90625 348.71564Q340.48438 348.71564 340.89062 348.41876Q341.3125 348.10626 341.54688 347.45ZM338.09375 345.7469L341.5625 345.7469Q341.5 344.95 341.17188 344.5594Q340.65625 343.95 339.85938 343.95Q339.125 343.95 338.625 344.4344Q338.14062 344.91876 338.09375 345.7469ZM343.875 347.59064L344.90625 347.4344Q345.0 348.0594 345.39062 348.3875Q345.79688 348.71564 346.53125 348.71564Q347.25 348.71564 347.59375 348.4344Q347.95312 348.1375 347.95312 347.73126Q347.95312 347.3719 347.64062 347.16876Q347.42188 347.02814 346.5625 346.8094Q345.40625 346.5125 344.95312 346.3094Q344.51562 346.09064 344.28125 345.71564Q344.04688 345.34064 344.04688 344.8719Q344.04688 344.46564 344.23438 344.10626Q344.42188 343.7469 344.75 343.5125Q345.0 343.34064 345.42188 343.21564Q345.84375 343.09064 346.34375 343.09064Q347.0625 343.09064 347.60938 343.3094Q348.17188 343.5125 348.4375 343.8719Q348.70312 344.23126 348.79688 344.825L347.76562 344.96564Q347.70312 344.4969 347.35938 344.23126Q347.03125 343.95 346.40625 343.95Q345.6875 343.95 345.375 344.2Q345.0625 344.4344 345.0625 344.7625Q345.0625 344.96564 345.1875 345.1219Q345.32812 345.29376 345.59375 345.40314Q345.75 345.46564 346.53125 345.66876Q347.65625 345.98126 348.09375 346.16876Q348.53125 346.35626 348.78125 346.71564Q349.03125 347.075 349.03125 347.6219Q349.03125 348.15314 348.71875 348.6219Q348.42188 349.075 347.84375 349.34064Q347.26562 349.59064 346.53125 349.59064Q345.3125 349.59064 344.67188 349.09064Q344.04688 348.575 343.875 347.59064ZM350.875 347.59064L351.90625 347.4344Q352.0 348.0594 352.39062 348.3875Q352.79688 348.71564 353.53125 348.71564Q354.25 348.71564 354.59375 348.4344Q354.95312 348.1375 354.95312 347.73126Q354.95312 347.3719 354.64062 347.16876Q354.42188 347.02814 353.5625 346.8094Q352.40625 346.5125 351.95312 346.3094Q351.51562 346.09064 351.28125 345.71564Q351.04688 345.34064 351.04688 344.8719Q351.04688 344.46564 351.23438 344.10626Q351.42188 343.7469 351.75 343.5125Q352.0 343.34064 352.42188 343.21564Q352.84375 343.09064 353.34375 343.09064Q354.0625 343.09064 354.60938 343.3094Q355.17188 343.5125 355.4375 343.8719Q355.70312 344.23126 355.79688 344.825L354.76562 344.96564Q354.70312 344.4969 354.35938 344.23126Q354.03125 343.95 353.40625 343.95Q352.6875 343.95 352.375 344.2Q352.0625 344.4344 352.0625 344.7625Q352.0625 344.96564 352.1875 345.1219Q352.32812 345.29376 352.59375 345.40314Q352.75 345.46564 353.53125 345.66876Q354.65625 345.98126 355.09375 346.16876Q355.53125 346.35626 355.78125 346.71564Q356.03125 347.075 356.03125 347.6219Q356.03125 348.15314 355.71875 348.6219Q355.42188 349.075 354.84375 349.34064Q354.26562 349.59064 353.53125 349.59064Q352.3125 349.59064 351.67188 349.09064Q351.04688 348.575 350.875 347.59064ZM358.98438 351.98126L358.23438 351.98126Q359.98438 349.16876 359.98438 346.34064Q359.98438 345.2469 359.73438 344.15314Q359.53125 343.27814 359.17188 342.46564Q358.9375 341.95 358.23438 340.71564L358.98438 340.71564Q360.07812 342.1844 360.60938 343.66876Q361.0625 344.95 361.0625 346.34064Q361.0625 347.91876 360.45312 349.40314Q359.84375 350.8719 358.98438 351.98126Z" fill-rule="nonzero"/><path fill="#000000" d="M398.06192 335.45L398.06192 326.85626L401.2963 326.85626Q402.28067 326.85626 402.87442 327.1219Q403.46817 327.3875 403.7963 327.9344Q404.14005 328.46564 404.14005 329.0594Q404.14005 329.60626 403.84317 330.09064Q403.5463 330.575 402.93692 330.8719Q403.71817 331.10626 404.12442 331.66876Q404.5463 332.21564 404.5463 332.96564Q404.5463 333.5594 404.2963 334.09064Q404.0463 334.60626 403.6713 334.8875Q403.2963 335.16876 402.71817 335.3094Q402.15567 335.45 401.34317 335.45L398.06192 335.45ZM399.20255 330.46564L401.06192 330.46564Q401.81192 330.46564 402.14005 330.3719Q402.57755 330.2469 402.7963 329.95Q403.01505 329.6375 403.01505 329.1844Q403.01505 328.7625 402.81192 328.4344Q402.6088 328.10626 402.21817 327.9969Q401.84317 327.8719 400.9213 327.8719L399.20255 327.8719L399.20255 330.46564ZM399.20255 334.4344L401.34317 334.4344Q401.89005 334.4344 402.1088 334.3875Q402.51505 334.325 402.76505 334.16876Q403.03067 333.9969 403.20255 333.6844Q403.37442 333.3719 403.37442 332.96564Q403.37442 332.48126 403.12442 332.1219Q402.89005 331.7625 402.45255 331.6219Q402.01505 331.48126 401.18692 331.48126L399.20255 331.48126L399.20255 334.4344ZM405.95255 335.45L405.95255 326.85626L407.01505 326.85626L407.01505 335.45L405.95255 335.45ZM413.06192 335.45L413.06192 334.52814Q412.32755 335.59064 411.07755 335.59064Q410.53067 335.59064 410.0463 335.3875Q409.57755 335.16876 409.34317 334.85626Q409.1088 334.52814 409.01505 334.0594Q408.95255 333.7625 408.95255 333.075L408.95255 329.23126L410.01505 329.23126L410.01505 332.6844Q410.01505 333.4969 410.07755 333.79376Q410.1713 334.2 410.4838 334.45Q410.81192 334.6844 411.2963 334.6844Q411.76505 334.6844 412.1713 334.45Q412.59317 334.2 412.76505 333.77814Q412.95255 333.35626 412.95255 332.5594L412.95255 329.23126L413.99942 329.23126L413.99942 335.45L413.06192 335.45ZM420.2338 333.45L421.32755 333.575Q421.07755 334.52814 420.37442 335.0594Q419.6713 335.59064 418.59317 335.59064Q417.2338 335.59064 416.4213 334.7469Q415.62442 333.90314 415.62442 332.3875Q415.62442 330.825 416.43692 329.96564Q417.24942 329.09064 418.53067 329.09064Q419.78067 329.09064 420.56192 329.9344Q421.3588 330.77814 421.3588 332.325Q421.3588 332.41876 421.3588 332.60626L416.71817 332.60626Q416.78067 333.6375 417.2963 334.1844Q417.81192 334.71564 418.59317 334.71564Q419.1713 334.71564 419.57755 334.41876Q419.99942 334.10626 420.2338 333.45ZM416.78067 331.7469L420.24942 331.7469Q420.18692 330.95 419.8588 330.5594Q419.34317 329.95 418.5463 329.95Q417.81192 329.95 417.31192 330.4344Q416.82755 330.91876 416.78067 331.7469ZM427.99942 337.98126Q427.12442 336.8719 426.51505 335.40314Q425.9213 333.91876 425.9213 332.34064Q425.9213 330.95 426.3588 329.66876Q426.89005 328.1844 427.99942 326.71564L428.74942 326.71564Q428.0463 327.9344 427.81192 328.45Q427.45255 329.2625 427.24942 330.1375Q426.99942 331.23126 426.99942 332.34064Q426.99942 335.16876 428.74942 337.98126L427.99942 337.98126ZM430.07755 335.45L430.07755 326.85626L431.7963 326.85626L433.82755 332.9344Q434.1088 333.79376 434.2338 334.21564Q434.37442 333.7469 434.68692 332.84064L436.74942 326.85626L438.28067 326.85626L438.28067 335.45L437.18692 335.45L437.18692 328.2625L434.68692 335.45L433.65567 335.45L431.1713 328.1375L431.1713 335.45L430.07755 335.45ZM443.0463 334.6844Q442.45255 335.1844 441.90567 335.3875Q441.37442 335.59064 440.74942 335.59064Q439.71817 335.59064 439.1713 335.09064Q438.62442 334.59064 438.62442 333.8094Q438.62442 333.35626 438.82755 332.98126Q439.03067 332.59064 439.37442 332.3719Q439.71817 332.1375 440.14005 332.02814Q440.43692 331.9344 441.07755 331.85626Q442.34317 331.71564 442.95255 331.4969Q442.95255 331.27814 442.95255 331.23126Q442.95255 330.575 442.65567 330.3094Q442.24942 329.96564 441.45255 329.96564Q440.71817 329.96564 440.3588 330.23126Q439.99942 330.48126 439.82755 331.1375L438.7963 330.9969Q438.93692 330.34064 439.26505 329.9344Q439.59317 329.52814 440.20255 329.3094Q440.81192 329.09064 441.6088 329.09064Q442.40567 329.09064 442.90567 329.27814Q443.40567 329.46564 443.64005 329.7469Q443.87442 330.02814 443.96817 330.46564Q444.01505 330.73126 444.01505 331.4344L444.01505 332.84064Q444.01505 334.3094 444.07755 334.7Q444.15567 335.09064 444.3588 335.45L443.24942 335.45Q443.09317 335.1219 443.0463 334.6844ZM442.95255 332.325Q442.37442 332.5594 441.2338 332.73126Q440.57755 332.825 440.31192 332.95Q440.0463 333.0594 439.89005 333.27814Q439.74942 333.4969 439.74942 333.77814Q439.74942 334.2 440.06192 334.48126Q440.39005 334.7625 440.99942 334.7625Q441.6088 334.7625 442.07755 334.4969Q442.56192 334.23126 442.78067 333.7625Q442.95255 333.40314 442.95255 332.71564L442.95255 332.325ZM445.28067 335.45L447.5463 332.21564L445.45255 329.23126L446.76505 329.23126L447.71817 330.6844Q447.9838 331.10626 448.15567 331.3875Q448.40567 330.9969 448.62442 330.7L449.6713 329.23126L450.93692 329.23126L448.78067 332.15314L451.09317 335.45L449.81192 335.45L448.53067 333.5125L448.18692 332.9969L446.5463 335.45L445.28067 335.45Z" fill-rule="nonzero"/><path fill="#000000" d="M392.56192 349.45L392.56192 340.85626L395.7963 340.85626Q396.78067 340.85626 397.37442 341.1219Q397.96817 341.3875 398.2963 341.9344Q398.64005 342.46564 398.64005 343.0594Q398.64005 343.60626 398.34317 344.09064Q398.0463 344.575 397.43692 344.8719Q398.21817 345.10626 398.62442 345.66876Q399.0463 346.21564 399.0463 346.96564Q399.0463 347.5594 398.7963 348.09064Q398.5463 348.60626 398.1713 348.8875Q397.7963 349.16876 397.21817 349.3094Q396.65567 349.45 395.84317 349.45L392.56192 349.45ZM393.70255 344.46564L395.56192 344.46564Q396.31192 344.46564 396.64005 344.3719Q397.07755 344.2469 397.2963 343.95Q397.51505 343.6375 397.51505 343.1844Q397.51505 342.7625 397.31192 342.4344Q397.1088 342.10626 396.71817 341.9969Q396.34317 341.8719 395.4213 341.8719L393.70255 341.8719L393.70255 344.46564ZM393.70255 348.4344L395.84317 348.4344Q396.39005 348.4344 396.6088 348.3875Q397.01505 348.325 397.26505 348.16876Q397.53067 347.9969 397.70255 347.6844Q397.87442 347.3719 397.87442 346.96564Q397.87442 346.48126 397.62442 346.1219Q397.39005 345.7625 396.95255 345.6219Q396.51505 345.48126 395.68692 345.48126L393.70255 345.48126L393.70255 348.4344ZM400.46817 349.45L400.46817 343.23126L401.4213 343.23126L401.4213 344.16876Q401.78067 343.5125 402.07755 343.3094Q402.39005 343.09064 402.76505 343.09064Q403.2963 343.09064 403.84317 343.41876L403.4838 344.40314Q403.09317 344.16876 402.71817 344.16876Q402.3588 344.16876 402.07755 344.3875Q401.81192 344.59064 401.70255 344.96564Q401.51505 345.52814 401.51505 346.1844L401.51505 349.45L400.46817 349.45ZM404.4838 342.075L404.4838 340.85626L405.5463 340.85626L405.5463 342.075L404.4838 342.075ZM404.4838 349.45L404.4838 343.23126L405.5463 343.23126L405.5463 349.45L404.4838 349.45ZM407.28067 349.96564L408.31192 350.1219Q408.37442 350.59064 408.6713 350.8094Q409.06192 351.10626 409.7338 351.10626Q410.46817 351.10626 410.8588 350.8094Q411.26505 350.5125 411.40567 349.9969Q411.49942 349.66876 411.4838 348.6375Q410.7963 349.45 409.76505 349.45Q408.4838 349.45 407.78067 348.52814Q407.07755 347.59064 407.07755 346.3094Q407.07755 345.41876 407.39005 344.66876Q407.71817 343.90314 408.32755 343.4969Q408.93692 343.09064 409.76505 343.09064Q410.87442 343.09064 411.59317 343.98126L411.59317 343.23126L412.56192 343.23126L412.56192 348.60626Q412.56192 350.0594 412.26505 350.66876Q411.96817 351.27814 411.32755 351.6219Q410.68692 351.98126 409.74942 351.98126Q408.64005 351.98126 407.95255 351.48126Q407.26505 350.98126 407.28067 349.96564ZM408.15567 346.23126Q408.15567 347.45 408.64005 348.0125Q409.12442 348.575 409.8588 348.575Q410.59317 348.575 411.07755 348.0125Q411.57755 347.45 411.57755 346.2625Q411.57755 345.1219 411.06192 344.54376Q410.56192 343.96564 409.84317 343.96564Q409.14005 343.96564 408.64005 344.54376Q408.15567 345.10626 408.15567 346.23126ZM414.4838 349.45L414.4838 340.85626L415.53067 340.85626L415.53067 343.9344Q416.26505 343.09064 417.39005 343.09064Q418.09317 343.09064 418.59317 343.3719Q419.1088 343.6375 419.32755 344.1219Q419.5463 344.59064 419.5463 345.5125L419.5463 349.45L418.49942 349.45L418.49942 345.5125Q418.49942 344.71564 418.15567 344.35626Q417.81192 343.9969 417.18692 343.9969Q416.71817 343.9969 416.2963 344.2469Q415.89005 344.48126 415.70255 344.90314Q415.53067 345.3094 415.53067 346.04376L415.53067 349.45L414.4838 349.45ZM423.78067 348.5125L423.93692 349.4344Q423.4838 349.52814 423.14005 349.52814Q422.56192 349.52814 422.24942 349.35626Q421.93692 349.16876 421.7963 348.8719Q421.6713 348.575 421.6713 347.6219L421.6713 344.04376L420.90567 344.04376L420.90567 343.23126L421.6713 343.23126L421.6713 341.6844L422.71817 341.0594L422.71817 343.23126L423.78067 343.23126L423.78067 344.04376L422.71817 344.04376L422.71817 347.6844Q422.71817 348.1375 422.76505 348.2625Q422.82755 348.3875 422.95255 348.46564Q423.07755 348.54376 423.31192 348.54376Q423.49942 348.54376 423.78067 348.5125ZM424.4838 349.45L424.4838 343.23126L425.4213 343.23126L425.4213 344.10626Q426.1088 343.09064 427.40567 343.09064Q427.96817 343.09064 428.43692 343.29376Q428.9213 343.4969 429.15567 343.825Q429.39005 344.15314 429.4838 344.59064Q429.53067 344.8875 429.53067 345.6219L429.53067 349.45L428.4838 349.45L428.4838 345.66876Q428.4838 345.0125 428.3588 344.7Q428.2338 344.3875 427.9213 344.2Q427.6088 343.9969 427.18692 343.9969Q426.51505 343.9969 426.01505 344.4344Q425.53067 344.85626 425.53067 346.04376L425.53067 349.45L424.4838 349.45ZM435.7338 347.45L436.82755 347.575Q436.57755 348.52814 435.87442 349.0594Q435.1713 349.59064 434.09317 349.59064Q432.7338 349.59064 431.9213 348.7469Q431.12442 347.90314 431.12442 346.3875Q431.12442 344.825 431.93692 343.96564Q432.74942 343.09064 434.03067 343.09064Q435.28067 343.09064 436.06192 343.9344Q436.8588 344.77814 436.8588 346.325Q436.8588 346.41876 436.8588 346.60626L432.21817 346.60626Q432.28067 347.6375 432.7963 348.1844Q433.31192 348.71564 434.09317 348.71564Q434.6713 348.71564 435.07755 348.41876Q435.49942 348.10626 435.7338 347.45ZM432.28067 345.7469L435.74942 345.7469Q435.68692 344.95 435.3588 344.5594Q434.84317 343.95 434.0463 343.95Q433.31192 343.95 432.81192 344.4344Q432.32755 344.91876 432.28067 345.7469ZM438.06192 347.59064L439.09317 347.4344Q439.18692 348.0594 439.57755 348.3875Q439.9838 348.71564 440.71817 348.71564Q441.43692 348.71564 441.78067 348.4344Q442.14005 348.1375 442.14005 347.73126Q442.14005 347.3719 441.82755 347.16876Q441.6088 347.02814 440.74942 346.8094Q439.59317 346.5125 439.14005 346.3094Q438.70255 346.09064 438.46817 345.71564Q438.2338 345.34064 438.2338 344.8719Q438.2338 344.46564 438.4213 344.10626Q438.6088 343.7469 438.93692 343.5125Q439.18692 343.34064 439.6088 343.21564Q440.03067 343.09064 440.53067 343.09064Q441.24942 343.09064 441.7963 343.3094Q442.3588 343.5125 442.62442 343.8719Q442.89005 344.23126 442.9838 344.825L441.95255 344.96564Q441.89005 344.4969 441.5463 344.23126Q441.21817 343.95 440.59317 343.95Q439.87442 343.95 439.56192 344.2Q439.24942 344.4344 439.24942 344.7625Q439.24942 344.96564 439.37442 345.1219Q439.51505 345.29376 439.78067 345.40314Q439.93692 345.46564 440.71817 345.66876Q441.84317 345.98126 442.28067 346.16876Q442.71817 346.35626 442.96817 346.71564Q443.21817 347.075 443.21817 347.6219Q443.21817 348.15314 442.90567 348.6219Q442.6088 349.075 442.03067 349.34064Q441.45255 349.59064 440.71817 349.59064Q439.49942 349.59064 438.8588 349.09064Q438.2338 348.575 438.06192 347.59064ZM445.06192 347.59064L446.09317 347.4344Q446.18692 348.0594 446.57755 348.3875Q446.9838 348.71564 447.71817 348.71564Q448.43692 348.71564 448.78067 348.4344Q449.14005 348.1375 449.14005 347.73126Q449.14005 347.3719 448.82755 347.16876Q448.6088 347.02814 447.74942 346.8094Q446.59317 346.5125 446.14005 346.3094Q445.70255 346.09064 445.46817 345.71564Q445.2338 345.34064 445.2338 344.8719Q445.2338 344.46564 445.4213 344.10626Q445.6088 343.7469 445.93692 343.5125Q446.18692 343.34064 446.6088 343.21564Q447.03067 343.09064 447.53067 343.09064Q448.24942 343.09064 448.7963 343.3094Q449.3588 343.5125 449.62442 343.8719Q449.89005 344.23126 449.9838 344.825L448.95255 344.96564Q448.89005 344.4969 448.5463 344.23126Q448.21817 343.95 447.59317 343.95Q446.87442 343.95 446.56192 344.2Q446.24942 344.4344 446.24942 344.7625Q446.24942 344.96564 446.37442 345.1219Q446.51505 345.29376 446.78067 345.40314Q446.93692 345.46564 447.71817 345.66876Q448.84317 345.98126 449.28067 346.16876Q449.71817 346.35626 449.96817 346.71564Q450.21817 347.075 450.21817 347.6219Q450.21817 348.15314 449.90567 348.6219Q449.6088 349.075 449.03067 349.34064Q448.45255 349.59064 447.71817 349.59064Q446.49942 349.59064 445.8588 349.09064Q445.2338 348.575 445.06192 347.59064ZM453.1713 351.98126L452.4213 351.98126Q454.1713 349.16876 454.1713 346.34064Q454.1713 345.2469 453.9213 344.15314Q453.71817 343.27814 453.3588 342.46564Q453.12442 341.95 452.4213 340.71564L453.1713 340.71564Q454.26505 342.1844 454.7963 343.66876Q455.24942 344.95 455.24942 346.34064Q455.24942 347.91876 454.64005 349.40314Q454.03067 350.8719 453.1713 351.98126Z" fill-rule="nonzero"/><path fill="#000000" d="M490.79572 335.45L488.51447 326.85626L489.68634 326.85626L490.99884 332.4969Q491.20197 333.3719 491.35822 334.2469Q491.68634 332.8719 491.74884 332.65314L493.37384 326.85626L494.74884 326.85626L495.98322 331.2Q496.43634 332.825 496.6551 334.2469Q496.81134 333.4344 497.07697 332.3719L498.42072 326.85626L499.56134 326.85626L497.2176 335.45L496.10822 335.45L494.31134 328.90314Q494.07697 328.09064 494.0301 327.90314Q493.9051 328.48126 493.7801 328.90314L491.9676 335.45L490.79572 335.45ZM500.17072 335.45L500.17072 326.85626L501.2176 326.85626L501.2176 329.9344Q501.95197 329.09064 503.07697 329.09064Q503.7801 329.09064 504.2801 329.3719Q504.79572 329.6375 505.01447 330.1219Q505.23322 330.59064 505.23322 331.5125L505.23322 335.45L504.18634 335.45L504.18634 331.5125Q504.18634 330.71564 503.8426 330.35626Q503.49884 329.9969 502.87384 329.9969Q502.4051 329.9969 501.98322 330.2469Q501.57697 330.48126 501.38947 330.90314Q501.2176 331.3094 501.2176 332.04376L501.2176 335.45L500.17072 335.45ZM507.17072 328.075L507.17072 326.85626L508.23322 326.85626L508.23322 328.075L507.17072 328.075ZM507.17072 335.45L507.17072 329.23126L508.23322 329.23126L508.23322 335.45L507.17072 335.45ZM512.4676 334.5125L512.62384 335.4344Q512.1707 335.52814 511.82697 335.52814Q511.24884 335.52814 510.93634 335.35626Q510.62384 335.16876 510.48322 334.8719Q510.35822 334.575 510.35822 333.6219L510.35822 330.04376L509.5926 330.04376L509.5926 329.23126L510.35822 329.23126L510.35822 327.6844L511.4051 327.0594L511.4051 329.23126L512.4676 329.23126L512.4676 330.04376L511.4051 330.04376L511.4051 333.6844Q511.4051 334.1375 511.45197 334.2625Q511.51447 334.3875 511.63947 334.46564Q511.76447 334.54376 511.99884 334.54376Q512.18634 334.54376 512.4676 334.5125ZM517.4207 333.45L518.51447 333.575Q518.26447 334.52814 517.56134 335.0594Q516.8582 335.59064 515.7801 335.59064Q514.4207 335.59064 513.6082 334.7469Q512.81134 333.90314 512.81134 332.3875Q512.81134 330.825 513.62384 329.96564Q514.43634 329.09064 515.7176 329.09064Q516.9676 329.09064 517.74884 329.9344Q518.5457 330.77814 518.5457 332.325Q518.5457 332.41876 518.5457 332.60626L513.9051 332.60626Q513.9676 333.6375 514.4832 334.1844Q514.99884 334.71564 515.7801 334.71564Q516.3582 334.71564 516.76447 334.41876Q517.18634 334.10626 517.4207 333.45ZM513.9676 331.7469L517.43634 331.7469Q517.37384 330.95 517.0457 330.5594Q516.5301 329.95 515.7332 329.95Q514.99884 329.95 514.49884 330.4344Q514.01447 330.91876 513.9676 331.7469ZM525.18634 337.98126Q524.31134 336.8719 523.70197 335.40314Q523.1082 333.91876 523.1082 332.34064Q523.1082 330.95 523.5457 329.66876Q524.07697 328.1844 525.18634 326.71564L525.93634 326.71564Q525.2332 327.9344 524.99884 328.45Q524.63947 329.2625 524.43634 330.1375Q524.18634 331.23126 524.18634 332.34064Q524.18634 335.16876 525.93634 337.98126L525.18634 337.98126ZM527.26447 335.45L527.26447 326.85626L528.9832 326.85626L531.01447 332.9344Q531.2957 333.79376 531.4207 334.21564Q531.56134 333.7469 531.87384 332.84064L533.93634 326.85626L535.4676 326.85626L535.4676 335.45L534.37384 335.45L534.37384 328.2625L531.87384 335.45L530.8426 335.45L528.3582 328.1375L528.3582 335.45L527.26447 335.45ZM540.2332 334.6844Q539.63947 335.1844 539.0926 335.3875Q538.56134 335.59064 537.93634 335.59064Q536.9051 335.59064 536.3582 335.09064Q535.81134 334.59064 535.81134 333.8094Q535.81134 333.35626 536.01447 332.98126Q536.2176 332.59064 536.56134 332.3719Q536.9051 332.1375 537.32697 332.02814Q537.62384 331.9344 538.26447 331.85626Q539.5301 331.71564 540.13947 331.4969Q540.13947 331.27814 540.13947 331.23126Q540.13947 330.575 539.8426 330.3094Q539.43634 329.96564 538.63947 329.96564Q537.9051 329.96564 537.5457 330.23126Q537.18634 330.48126 537.01447 331.1375L535.9832 330.9969Q536.12384 330.34064 536.45197 329.9344Q536.7801 329.52814 537.38947 329.3094Q537.99884 329.09064 538.7957 329.09064Q539.5926 329.09064 540.0926 329.27814Q540.5926 329.46564 540.82697 329.7469Q541.06134 330.02814 541.1551 330.46564Q541.20197 330.73126 541.20197 331.4344L541.20197 332.84064Q541.20197 334.3094 541.26447 334.7Q541.3426 335.09064 541.5457 335.45L540.43634 335.45Q540.2801 335.1219 540.2332 334.6844ZM540.13947 332.325Q539.56134 332.5594 538.4207 332.73126Q537.76447 332.825 537.49884 332.95Q537.2332 333.0594 537.07697 333.27814Q536.93634 333.4969 536.93634 333.77814Q536.93634 334.2 537.24884 334.48126Q537.57697 334.7625 538.18634 334.7625Q538.7957 334.7625 539.26447 334.4969Q539.74884 334.23126 539.9676 333.7625Q540.13947 333.40314 540.13947 332.71564L540.13947 332.325ZM542.4676 335.45L544.7332 332.21564L542.63947 329.23126L543.95197 329.23126L544.9051 330.6844Q545.1707 331.10626 545.3426 331.3875Q545.5926 330.9969 545.81134 330.7L546.8582 329.23126L548.12384 329.23126L545.9676 332.15314L548.2801 335.45L546.99884 335.45L545.7176 333.5125L545.37384 332.9969L543.7332 335.45L542.4676 335.45Z" fill-rule="nonzero"/><path fill="#000000" d="M486.74884 349.45L486.74884 340.85626L489.98322 340.85626Q490.9676 340.85626 491.56134 341.1219Q492.1551 341.3875 492.48322 341.9344Q492.82697 342.46564 492.82697 343.0594Q492.82697 343.60626 492.5301 344.09064Q492.23322 344.575 491.62384 344.8719Q492.4051 345.10626 492.81134 345.66876Q493.23322 346.21564 493.23322 346.96564Q493.23322 347.5594 492.98322 348.09064Q492.73322 348.60626 492.35822 348.8875Q491.98322 349.16876 491.4051 349.3094Q490.8426 349.45 490.0301 349.45L486.74884 349.45ZM487.88947 344.46564L489.74884 344.46564Q490.49884 344.46564 490.82697 344.3719Q491.26447 344.2469 491.48322 343.95Q491.70197 343.6375 491.70197 343.1844Q491.70197 342.7625 491.49884 342.4344Q491.29572 342.10626 490.9051 341.9969Q490.5301 341.8719 489.60822 341.8719L487.88947 341.8719L487.88947 344.46564ZM487.88947 348.4344L490.0301 348.4344Q490.57697 348.4344 490.79572 348.3875Q491.20197 348.325 491.45197 348.16876Q491.7176 347.9969 491.88947 347.6844Q492.06134 347.3719 492.06134 346.96564Q492.06134 346.48126 491.81134 346.1219Q491.57697 345.7625 491.13947 345.6219Q490.70197 345.48126 489.87384 345.48126L487.88947 345.48126L487.88947 348.4344ZM494.6551 349.45L494.6551 343.23126L495.60822 343.23126L495.60822 344.16876Q495.9676 343.5125 496.26447 343.3094Q496.57697 343.09064 496.95197 343.09064Q497.48322 343.09064 498.0301 343.41876L497.67072 344.40314Q497.2801 344.16876 496.9051 344.16876Q496.54572 344.16876 496.26447 344.3875Q495.99884 344.59064 495.88947 344.96564Q495.70197 345.52814 495.70197 346.1844L495.70197 349.45L494.6551 349.45ZM498.67072 342.075L498.67072 340.85626L499.73322 340.85626L499.73322 342.075L498.67072 342.075ZM498.67072 349.45L498.67072 343.23126L499.73322 343.23126L499.73322 349.45L498.67072 349.45ZM501.4676 349.96564L502.49884 350.1219Q502.56134 350.59064 502.85822 350.8094Q503.24884 351.10626 503.92072 351.10626Q504.6551 351.10626 505.04572 350.8094Q505.45197 350.5125 505.5926 349.9969Q505.68634 349.66876 505.67072 348.6375Q504.98322 349.45 503.95197 349.45Q502.67072 349.45 501.9676 348.52814Q501.26447 347.59064 501.26447 346.3094Q501.26447 345.41876 501.57697 344.66876Q501.9051 343.90314 502.51447 343.4969Q503.12384 343.09064 503.95197 343.09064Q505.06134 343.09064 505.7801 343.98126L505.7801 343.23126L506.74884 343.23126L506.74884 348.60626Q506.74884 350.0594 506.45197 350.66876Q506.1551 351.27814 505.51447 351.6219Q504.87384 351.98126 503.93634 351.98126Q502.82697 351.98126 502.13947 351.48126Q501.45197 350.98126 501.4676 349.96564ZM502.3426 346.23126Q502.3426 347.45 502.82697 348.0125Q503.31134 348.575 504.04572 348.575Q504.7801 348.575 505.26447 348.0125Q505.76447 347.45 505.76447 346.2625Q505.76447 345.1219 505.24884 344.54376Q504.74884 343.96564 504.0301 343.96564Q503.32697 343.96564 502.82697 344.54376Q502.3426 345.10626 502.3426 346.23126ZM508.67072 349.45L508.67072 340.85626L509.7176 340.85626L509.7176 343.9344Q510.45197 343.09064 511.57697 343.09064Q512.2801 343.09064 512.7801 343.3719Q513.2957 343.6375 513.51447 344.1219Q513.7332 344.59064 513.7332 345.5125L513.7332 349.45L512.68634 349.45L512.68634 345.5125Q512.68634 344.71564 512.3426 344.35626Q511.99884 343.9969 511.37384 343.9969Q510.9051 343.9969 510.48322 344.2469Q510.07697 344.48126 509.88947 344.90314Q509.7176 345.3094 509.7176 346.04376L509.7176 349.45L508.67072 349.45ZM517.9676 348.5125L518.12384 349.4344Q517.6707 349.52814 517.32697 349.52814Q516.74884 349.52814 516.43634 349.35626Q516.12384 349.16876 515.9832 348.8719Q515.8582 348.575 515.8582 347.6219L515.8582 344.04376L515.0926 344.04376L515.0926 343.23126L515.8582 343.23126L515.8582 341.6844L516.9051 341.0594L516.9051 343.23126L517.9676 343.23126L517.9676 344.04376L516.9051 344.04376L516.9051 347.6844Q516.9051 348.1375 516.95197 348.2625Q517.01447 348.3875 517.13947 348.46564Q517.26447 348.54376 517.49884 348.54376Q517.68634 348.54376 517.9676 348.5125ZM518.6707 349.45L518.6707 343.23126L519.6082 343.23126L519.6082 344.10626Q520.2957 343.09064 521.5926 343.09064Q522.1551 343.09064 522.62384 343.29376Q523.1082 343.4969 523.3426 343.825Q523.57697 344.15314 523.6707 344.59064Q523.7176 344.8875 523.7176 345.6219L523.7176 349.45L522.6707 349.45L522.6707 345.66876Q522.6707 345.0125 522.5457 344.7Q522.4207 344.3875 522.1082 344.2Q521.7957 343.9969 521.37384 343.9969Q520.70197 343.9969 520.20197 344.4344Q519.7176 344.85626 519.7176 346.04376L519.7176 349.45L518.6707 349.45ZM529.9207 347.45L531.01447 347.575Q530.76447 348.52814 530.06134 349.0594Q529.3582 349.59064 528.2801 349.59064Q526.9207 349.59064 526.1082 348.7469Q525.31134 347.90314 525.31134 346.3875Q525.31134 344.825 526.12384 343.96564Q526.93634 343.09064 528.2176 343.09064Q529.4676 343.09064 530.24884 343.9344Q531.0457 344.77814 531.0457 346.325Q531.0457 346.41876 531.0457 346.60626L526.4051 346.60626Q526.4676 347.6375 526.9832 348.1844Q527.49884 348.71564 528.2801 348.71564Q528.8582 348.71564 529.26447 348.41876Q529.68634 348.10626 529.9207 347.45ZM526.4676 345.7469L529.93634 345.7469Q529.87384 344.95 529.5457 344.5594Q529.0301 343.95 528.2332 343.95Q527.49884 343.95 526.99884 344.4344Q526.51447 344.91876 526.4676 345.7469ZM532.24884 347.59064L533.2801 347.4344Q533.37384 348.0594 533.76447 348.3875Q534.1707 348.71564 534.9051 348.71564Q535.62384 348.71564 535.9676 348.4344Q536.32697 348.1375 536.32697 347.73126Q536.32697 347.3719 536.01447 347.16876Q535.7957 347.02814 534.93634 346.8094Q533.7801 346.5125 533.32697 346.3094Q532.88947 346.09064 532.6551 345.71564Q532.4207 345.34064 532.4207 344.8719Q532.4207 344.46564 532.6082 344.10626Q532.7957 343.7469 533.12384 343.5125Q533.37384 343.34064 533.7957 343.21564Q534.2176 343.09064 534.7176 343.09064Q535.43634 343.09064 535.9832 343.3094Q536.5457 343.5125 536.81134 343.8719Q537.07697 344.23126 537.1707 344.825L536.13947 344.96564Q536.07697 344.4969 535.7332 344.23126Q535.4051 343.95 534.7801 343.95Q534.06134 343.95 533.74884 344.2Q533.43634 344.4344 533.43634 344.7625Q533.43634 344.96564 533.56134 345.1219Q533.70197 345.29376 533.9676 345.40314Q534.12384 345.46564 534.9051 345.66876Q536.0301 345.98126 536.4676 346.16876Q536.9051 346.35626 537.1551 346.71564Q537.4051 347.075 537.4051 347.6219Q537.4051 348.15314 537.0926 348.6219Q536.7957 349.075 536.2176 349.34064Q535.63947 349.59064 534.9051 349.59064Q533.68634 349.59064 533.0457 349.09064Q532.4207 348.575 532.24884 347.59064ZM539.24884 347.59064L540.2801 347.4344Q540.37384 348.0594 540.76447 348.3875Q541.1707 348.71564 541.9051 348.71564Q542.62384 348.71564 542.9676 348.4344Q543.32697 348.1375 543.32697 347.73126Q543.32697 347.3719 543.01447 347.16876Q542.7957 347.02814 541.93634 346.8094Q540.7801 346.5125 540.32697 346.3094Q539.88947 346.09064 539.6551 345.71564Q539.4207 345.34064 539.4207 344.8719Q539.4207 344.46564 539.6082 344.10626Q539.7957 343.7469 540.12384 343.5125Q540.37384 343.34064 540.7957 343.21564Q541.2176 343.09064 541.7176 343.09064Q542.43634 343.09064 542.9832 343.3094Q543.5457 343.5125 543.81134 343.8719Q544.07697 344.23126 544.1707 344.825L543.13947 344.96564Q543.07697 344.4969 542.7332 344.23126Q542.4051 343.95 541.7801 343.95Q541.06134 343.95 540.74884 344.2Q540.43634 344.4344 540.43634 344.7625Q540.43634 344.96564 540.56134 345.1219Q540.70197 345.29376 540.9676 345.40314Q541.12384 345.46564 541.9051 345.66876Q543.0301 345.98126 543.4676 346.16876Q543.9051 346.35626 544.1551 346.71564Q544.4051 347.075 544.4051 347.6219Q544.4051 348.15314 544.0926 348.6219Q543.7957 349.075 543.2176 349.34064Q542.63947 349.59064 541.9051 349.59064Q540.68634 349.59064 540.0457 349.09064Q539.4207 348.575 539.24884 347.59064ZM547.3582 351.98126L546.6082 351.98126Q548.3582 349.16876 548.3582 346.34064Q548.3582 345.2469 548.1082 344.15314Q547.9051 343.27814 547.5457 342.46564Q547.31134 341.95 546.6082 340.71564L547.3582 340.71564Q548.45197 342.1844 548.9832 343.66876Q549.43634 344.95 549.43634 346.34064Q549.43634 347.91876 548.82697 349.40314Q548.2176 350.8719 547.3582 351.98126Z" fill-rule="nonzero"/></svg>