<svg width="316" height="317" viewBox="0 0 316 317" fill="none" xmlns="http://www.w3.org/2000/svg">
<path opacity="0.24" d="M315.263 -317L319.902 -44.1369L381.171 -310.073L328.978 -42.2079L444.199 -289.594L337.453 -38.4342L501.591 -256.458L344.959 -32.9808L550.84 -212.114L351.168 -26.0859L589.793 -158.5L355.807 -18.051L616.748 -97.9584L358.674 -9.22711L630.527 -33.1355L359.643 0L630.527 33.1355L358.674 9.22711L616.748 97.9584L355.807 18.051L589.793 158.5L351.168 26.0859L550.84 212.114L344.959 32.9808L501.591 256.458L337.453 38.4342L444.199 289.594L328.978 42.2079L381.171 310.073L319.902 44.1369L315.263 317L310.624 44.1369L249.355 310.073L301.549 42.2079L186.328 289.594L293.073 38.4342L128.936 256.458L285.567 32.9808L79.6865 212.114L279.359 26.0859L40.7334 158.5L274.72 18.051L13.7785 97.9584L271.853 9.22711L0 33.1355L270.883 0L0 -33.1355L271.853 -9.22711L13.7785 -97.9584L274.72 -18.051L40.7334 -158.5L279.359 -26.0859L79.6865 -212.114L285.567 -32.9808L128.936 -256.458L293.073 -38.4342L186.328 -289.594L301.549 -42.2079L249.355 -310.073L310.624 -44.1369L315.263 -317Z" fill="#77A272"/>
</svg>
