<svg width="527" height="637" viewBox="0 0 527 637" fill="none" xmlns="http://www.w3.org/2000/svg">
<circle cx="338.5" cy="188.5" r="188.5" fill="#DD9699"/>
<path d="M264.28 215.64C262.627 215.64 261.347 215.187 260.44 214.28C259.587 213.32 259.16 212.013 259.16 210.36V163.8C259.16 162.093 259.613 160.813 260.52 159.96C261.427 159.053 262.707 158.6 264.36 158.6H283.64C289.827 158.6 294.6 160.147 297.96 163.24C301.32 166.333 303 170.653 303 176.2C303 181.747 301.32 186.093 297.96 189.24C294.6 192.333 289.827 193.88 283.64 193.88H269.4V210.36C269.4 212.013 268.973 213.32 268.12 214.28C267.267 215.187 265.987 215.64 264.28 215.64ZM269.4 185.8H282.04C285.667 185.8 288.413 185 290.28 183.4C292.147 181.747 293.08 179.347 293.08 176.2C293.08 173.053 292.147 170.68 290.28 169.08C288.413 167.48 285.667 166.68 282.04 166.68H269.4V185.8ZM316.148 215.64C314.601 215.64 313.401 215.213 312.548 214.36C311.748 213.507 311.348 212.28 311.348 210.68V163.08C311.348 161.427 311.748 160.173 312.548 159.32C313.401 158.413 314.494 157.96 315.828 157.96C317.054 157.96 317.961 158.2 318.548 158.68C319.188 159.107 319.934 159.853 320.788 160.92L351.428 200.68H349.348V162.84C349.348 161.293 349.748 160.093 350.548 159.24C351.401 158.387 352.601 157.96 354.148 157.96C355.694 157.96 356.868 158.387 357.668 159.24C358.468 160.093 358.868 161.293 358.868 162.84V210.84C358.868 212.333 358.494 213.507 357.748 214.36C357.001 215.213 355.988 215.64 354.708 215.64C353.481 215.64 352.494 215.4 351.748 214.92C351.054 214.44 350.281 213.667 349.428 212.6L318.868 172.84H320.868V210.68C320.868 212.28 320.468 213.507 319.668 214.36C318.868 215.213 317.694 215.64 316.148 215.64ZM398.311 215.8C392.071 215.8 386.791 214.627 382.471 212.28C378.205 209.933 374.951 206.6 372.711 202.28C370.471 197.96 369.351 192.84 369.351 186.92C369.351 182.44 369.991 178.413 371.271 174.84C372.605 171.267 374.498 168.227 376.951 165.72C379.458 163.16 382.498 161.213 386.071 159.88C389.645 158.493 393.698 157.8 398.231 157.8C401.218 157.8 404.205 158.173 407.191 158.92C410.231 159.613 413.085 160.813 415.751 162.52C416.658 163.107 417.245 163.827 417.511 164.68C417.831 165.533 417.885 166.413 417.671 167.32C417.458 168.173 417.058 168.92 416.471 169.56C415.885 170.2 415.138 170.6 414.231 170.76C413.378 170.92 412.418 170.707 411.351 170.12C409.325 168.947 407.271 168.093 405.191 167.56C403.111 167.027 400.791 166.76 398.231 166.76C394.285 166.76 390.951 167.56 388.231 169.16C385.511 170.707 383.458 172.973 382.071 175.96C380.738 178.947 380.071 182.6 380.071 186.92C380.071 193.48 381.645 198.467 384.791 201.88C387.938 205.293 392.605 207 398.791 207C400.925 207 403.085 206.787 405.271 206.36C407.458 205.933 409.591 205.347 411.671 204.6L409.671 209.16V192.12H400.871C399.538 192.12 398.498 191.773 397.751 191.08C397.058 190.387 396.711 189.453 396.711 188.28C396.711 187.053 397.058 186.12 397.751 185.48C398.498 184.84 399.538 184.52 400.871 184.52H414.071C415.405 184.52 416.418 184.893 417.111 185.64C417.858 186.333 418.231 187.347 418.231 188.68V208.12C418.231 209.293 417.991 210.28 417.511 211.08C417.085 211.88 416.365 212.467 415.351 212.84C413.005 213.693 410.311 214.413 407.271 215C404.231 215.533 401.245 215.8 398.311 215.8Z" fill="white"/>
<circle cx="163" cy="363" r="163" fill="#E9C18D"/>
<path d="M98.576 381.392C97.5307 381.429 96.7093 381.149 96.112 380.552C95.5147 379.955 95.216 379.189 95.216 378.256C95.216 377.547 95.44 376.931 95.888 376.408C96.2987 375.848 96.9147 375.549 97.736 375.512L99.416 375.4C101.059 375.288 102.291 374.784 103.112 373.888C103.971 372.955 104.4 371.629 104.4 369.912V344.712C104.4 343.517 104.699 342.621 105.296 342.024C105.931 341.389 106.827 341.072 107.984 341.072C109.141 341.072 110.019 341.389 110.616 342.024C111.251 342.621 111.568 343.517 111.568 344.712V369.856C111.568 372.208 111.139 374.205 110.28 375.848C109.459 377.491 108.227 378.779 106.584 379.712C104.941 380.608 102.907 381.131 100.48 381.28L98.576 381.392ZM123.917 381C122.685 381 121.733 380.683 121.061 380.048C120.426 379.376 120.109 378.424 120.109 377.192V345.328C120.109 344.096 120.426 343.163 121.061 342.528C121.733 341.856 122.685 341.52 123.917 341.52H137.357C140.12 341.52 142.472 341.931 144.413 342.752C146.354 343.573 147.829 344.749 148.837 346.28C149.882 347.811 150.405 349.64 150.405 351.768C150.405 354.157 149.714 356.173 148.333 357.816C146.952 359.459 145.066 360.56 142.677 361.12V360.28C145.44 360.691 147.586 361.736 149.117 363.416C150.648 365.096 151.413 367.28 151.413 369.968C151.413 373.477 150.218 376.203 147.829 378.144C145.477 380.048 142.192 381 137.973 381H123.917ZM126.997 375.568H137.077C139.616 375.568 141.482 375.083 142.677 374.112C143.872 373.104 144.469 371.611 144.469 369.632C144.469 367.616 143.872 366.123 142.677 365.152C141.482 364.181 139.616 363.696 137.077 363.696H126.997V375.568ZM126.997 358.264H136.125C138.589 358.264 140.418 357.797 141.613 356.864C142.845 355.893 143.461 354.475 143.461 352.608C143.461 350.741 142.845 349.341 141.613 348.408C140.418 347.437 138.589 346.952 136.125 346.952H126.997V358.264ZM162.472 381C161.24 381 160.288 380.683 159.616 380.048C158.981 379.376 158.664 378.424 158.664 377.192V345.328C158.664 344.096 158.981 343.163 159.616 342.528C160.288 341.856 161.24 341.52 162.472 341.52H182.464C183.397 341.52 184.106 341.763 184.592 342.248C185.114 342.733 185.376 343.424 185.376 344.32C185.376 345.253 185.114 345.981 184.592 346.504C184.106 346.989 183.397 347.232 182.464 347.232H165.552V358.096H181.232C182.202 358.096 182.93 358.339 183.416 358.824C183.901 359.309 184.144 360.019 184.144 360.952C184.144 361.885 183.901 362.595 183.416 363.08C182.93 363.565 182.202 363.808 181.232 363.808H165.552V375.288H182.464C183.397 375.288 184.106 375.531 184.592 376.016C185.114 376.501 185.376 377.211 185.376 378.144C185.376 379.077 185.114 379.787 184.592 380.272C184.106 380.757 183.397 381 182.464 381H162.472ZM211.007 381.56C206.639 381.56 202.943 380.739 199.919 379.096C196.932 377.453 194.655 375.12 193.087 372.096C191.519 369.072 190.735 365.488 190.735 361.344C190.735 358.208 191.183 355.389 192.079 352.888C193.012 350.387 194.338 348.259 196.055 346.504C197.81 344.712 199.938 343.349 202.439 342.416C204.94 341.445 207.778 340.96 210.951 340.96C213.042 340.96 215.132 341.221 217.223 341.744C219.351 342.229 221.348 343.069 223.215 344.264C223.85 344.675 224.26 345.179 224.447 345.776C224.671 346.373 224.708 346.989 224.559 347.624C224.41 348.221 224.13 348.744 223.719 349.192C223.308 349.64 222.786 349.92 222.151 350.032C221.554 350.144 220.882 349.995 220.135 349.584C218.716 348.763 217.279 348.165 215.823 347.792C214.367 347.419 212.743 347.232 210.951 347.232C208.188 347.232 205.855 347.792 203.951 348.912C202.047 349.995 200.61 351.581 199.639 353.672C198.706 355.763 198.239 358.32 198.239 361.344C198.239 365.936 199.34 369.427 201.543 371.816C203.746 374.205 207.012 375.4 211.343 375.4C212.836 375.4 214.348 375.251 215.879 374.952C217.41 374.653 218.903 374.243 220.359 373.72L218.959 376.912V364.984H212.799C211.866 364.984 211.138 364.741 210.615 364.256C210.13 363.771 209.887 363.117 209.887 362.296C209.887 361.437 210.13 360.784 210.615 360.336C211.138 359.888 211.866 359.664 212.799 359.664H222.039C222.972 359.664 223.682 359.925 224.167 360.448C224.69 360.933 224.951 361.643 224.951 362.576V376.184C224.951 377.005 224.783 377.696 224.447 378.256C224.148 378.816 223.644 379.227 222.935 379.488C221.292 380.085 219.407 380.589 217.279 381C215.151 381.373 213.06 381.56 211.007 381.56Z" fill="white"/>
<circle cx="379.5" cy="465.5" r="132.5" fill="#9CC3E7"/>
<path d="M344.4 477.256C343.824 477.256 343.355 477.117 342.992 476.84C342.651 476.563 342.373 476.125 342.16 475.528L335.472 456.616C335.237 455.933 335.28 455.357 335.6 454.888C335.941 454.419 336.507 454.184 337.296 454.184C337.872 454.184 338.32 454.323 338.64 454.6C338.96 454.856 339.216 455.272 339.408 455.848L345.168 472.936H343.888L349.904 455.88C350.117 455.304 350.384 454.877 350.704 454.6C351.024 454.323 351.44 454.184 351.952 454.184C352.464 454.184 352.869 454.323 353.168 454.6C353.467 454.877 353.723 455.315 353.936 455.912L359.76 472.936H358.64L364.496 455.848C364.688 455.293 364.944 454.877 365.264 454.6C365.584 454.323 366.021 454.184 366.576 454.184C367.259 454.184 367.76 454.419 368.08 454.888C368.4 455.357 368.443 455.933 368.208 456.616L361.456 475.56C361.243 476.136 360.965 476.563 360.624 476.84C360.283 477.117 359.824 477.256 359.248 477.256C358.672 477.256 358.213 477.117 357.872 476.84C357.531 476.563 357.253 476.125 357.04 475.528L351.472 459.656H352.208L346.576 475.56C346.363 476.136 346.085 476.563 345.744 476.84C345.424 477.117 344.976 477.256 344.4 477.256ZM377.386 477.32C375.615 477.32 374.09 476.989 372.81 476.328C371.53 475.667 370.538 474.728 369.834 473.512C369.151 472.296 368.81 470.856 368.81 469.192C368.81 467.571 369.14 466.152 369.802 464.936C370.484 463.72 371.412 462.771 372.586 462.088C373.78 461.384 375.135 461.032 376.65 461.032C377.759 461.032 378.751 461.213 379.626 461.576C380.522 461.939 381.279 462.461 381.898 463.144C382.538 463.827 383.018 464.659 383.338 465.64C383.679 466.6 383.85 467.688 383.85 468.904C383.85 469.288 383.711 469.587 383.434 469.8C383.178 469.992 382.804 470.088 382.314 470.088H372.042V467.784H381.034L380.522 468.264C380.522 467.283 380.372 466.461 380.074 465.8C379.796 465.139 379.38 464.637 378.826 464.296C378.292 463.933 377.62 463.752 376.81 463.752C375.914 463.752 375.146 463.965 374.506 464.392C373.887 464.797 373.407 465.384 373.066 466.152C372.746 466.899 372.586 467.795 372.586 468.84V469.064C372.586 470.813 372.991 472.125 373.802 473C374.634 473.853 375.85 474.28 377.45 474.28C378.004 474.28 378.623 474.216 379.306 474.088C380.01 473.939 380.671 473.693 381.29 473.352C381.738 473.096 382.132 472.989 382.474 473.032C382.815 473.053 383.082 473.171 383.274 473.384C383.487 473.597 383.615 473.864 383.658 474.184C383.7 474.483 383.636 474.792 383.466 475.112C383.316 475.432 383.05 475.709 382.666 475.944C381.919 476.413 381.055 476.765 380.074 477C379.114 477.213 378.218 477.32 377.386 477.32ZM396.042 477.32C394.719 477.32 393.556 476.989 392.554 476.328C391.572 475.667 390.922 474.781 390.602 473.672L390.954 472.872V475.208C390.954 475.869 390.783 476.381 390.442 476.744C390.1 477.085 389.62 477.256 389.002 477.256C388.362 477.256 387.871 477.085 387.53 476.744C387.188 476.381 387.018 475.869 387.018 475.208V456.2C387.018 455.539 387.188 455.037 387.53 454.696C387.871 454.355 388.362 454.184 389.002 454.184C389.642 454.184 390.132 454.355 390.474 454.696C390.836 455.037 391.018 455.539 391.018 456.2V464.52H390.634C390.975 463.475 391.636 462.632 392.618 461.992C393.599 461.352 394.74 461.032 396.042 461.032C397.428 461.032 398.634 461.363 399.658 462.024C400.682 462.685 401.482 463.624 402.058 464.84C402.634 466.035 402.922 467.475 402.922 469.16C402.922 470.824 402.634 472.275 402.058 473.512C401.482 474.728 400.671 475.667 399.626 476.328C398.602 476.989 397.407 477.32 396.042 477.32ZM394.922 474.28C395.711 474.28 396.404 474.088 397.002 473.704C397.599 473.32 398.058 472.755 398.378 472.008C398.719 471.24 398.89 470.291 398.89 469.16C398.89 467.453 398.527 466.184 397.802 465.352C397.076 464.499 396.116 464.072 394.922 464.072C394.132 464.072 393.439 464.264 392.842 464.648C392.244 465.011 391.775 465.576 391.434 466.344C391.114 467.091 390.954 468.029 390.954 469.16C390.954 470.845 391.316 472.125 392.042 473C392.767 473.853 393.727 474.28 394.922 474.28ZM408.637 477.256C407.976 477.256 407.464 477.075 407.101 476.712C406.76 476.328 406.589 475.805 406.589 475.144V456.52C406.589 455.837 406.77 455.325 407.133 454.984C407.496 454.621 408.008 454.44 408.669 454.44H416.381C418.856 454.44 420.765 455.059 422.109 456.296C423.453 457.533 424.125 459.261 424.125 461.48C424.125 463.699 423.453 465.437 422.109 466.696C420.765 467.933 418.856 468.552 416.381 468.552H410.685V475.144C410.685 475.805 410.514 476.328 410.173 476.712C409.832 477.075 409.32 477.256 408.637 477.256ZM410.685 465.32H415.741C417.192 465.32 418.29 465 419.037 464.36C419.784 463.699 420.157 462.739 420.157 461.48C420.157 460.221 419.784 459.272 419.037 458.632C418.29 457.992 417.192 457.672 415.741 457.672H410.685V465.32Z" fill="white"/>
<circle cx="217" cy="557" r="80" fill="#A8E4A0"/>
<path d="M192.016 565.192C191.632 565.192 191.32 565.104 191.08 564.928C190.856 564.752 190.72 564.52 190.672 564.232C190.624 563.928 190.68 563.592 190.84 563.224L197.176 549.184C197.384 548.72 197.632 548.392 197.92 548.2C198.224 547.992 198.568 547.888 198.952 547.888C199.32 547.888 199.648 547.992 199.936 548.2C200.24 548.392 200.496 548.72 200.704 549.184L207.064 563.224C207.24 563.592 207.304 563.928 207.256 564.232C207.208 564.536 207.072 564.776 206.848 564.952C206.624 565.112 206.328 565.192 205.96 565.192C205.512 565.192 205.16 565.088 204.904 564.88C204.664 564.656 204.448 564.32 204.256 563.872L202.696 560.248L203.992 561.088H193.864L195.16 560.248L193.624 563.872C193.416 564.336 193.2 564.672 192.976 564.88C192.752 565.088 192.432 565.192 192.016 565.192ZM198.904 551.416L195.544 559.408L194.92 558.64H202.936L202.336 559.408L198.952 551.416H198.904ZM214.998 565.192C214.566 565.192 214.206 565.096 213.918 564.904C213.646 564.696 213.422 564.392 213.246 563.992L206.982 549.928C206.806 549.528 206.758 549.176 206.838 548.872C206.918 548.568 207.086 548.328 207.342 548.152C207.598 547.976 207.902 547.888 208.254 547.888C208.718 547.888 209.062 547.992 209.286 548.2C209.526 548.392 209.726 548.688 209.886 549.088L215.574 562.264H214.542L220.206 549.064C220.382 548.68 220.59 548.392 220.83 548.2C221.07 547.992 221.406 547.888 221.838 547.888C222.19 547.888 222.478 547.976 222.702 548.152C222.942 548.328 223.094 548.568 223.158 548.872C223.222 549.176 223.166 549.528 222.99 549.928L216.726 563.992C216.55 564.392 216.326 564.696 216.054 564.904C215.798 565.096 215.446 565.192 214.998 565.192ZM226.923 565.192C226.427 565.192 226.043 565.056 225.771 564.784C225.515 564.496 225.387 564.104 225.387 563.608V549.472C225.387 548.96 225.515 548.568 225.771 548.296C226.043 548.024 226.427 547.888 226.923 547.888C227.419 547.888 227.795 548.024 228.051 548.296C228.323 548.568 228.459 548.96 228.459 549.472V563.608C228.459 564.104 228.331 564.496 228.075 564.784C227.819 565.056 227.435 565.192 226.923 565.192ZM233.745 565.192C233.249 565.192 232.857 565.056 232.569 564.784C232.297 564.496 232.161 564.088 232.161 563.56V549.712C232.161 549.184 232.297 548.784 232.569 548.512C232.857 548.224 233.265 548.08 233.793 548.08H242.169C242.585 548.08 242.897 548.184 243.105 548.392C243.313 548.6 243.417 548.896 243.417 549.28C243.417 549.68 243.313 549.992 243.105 550.216C242.897 550.424 242.585 550.528 242.169 550.528H235.233V555.304H241.665C242.065 555.304 242.369 555.408 242.577 555.616C242.801 555.824 242.913 556.12 242.913 556.504C242.913 556.904 242.801 557.216 242.577 557.44C242.369 557.648 242.065 557.752 241.665 557.752H235.233V563.56C235.233 564.648 234.737 565.192 233.745 565.192Z" fill="#101211"/>
</svg>
