<svg width="186" height="32" viewBox="0 0 186 32" fill="none" xmlns="http://www.w3.org/2000/svg">
<g clip-path="url(#clip0_327_2609)">
<path d="M16.9641 12.697C17.2088 13.7393 17.307 17.3284 17.9511 17.8499C18.7882 18.5281 19.5415 18.0959 19.9144 17.1995C20.5818 15.5989 21.0807 10.3568 21.0392 7.00974L21.2225 6.96202L23.5178 6.3676C23.6725 6.32738 23.8204 6.45349 23.8034 6.61232C23.5294 9.13932 20.2341 25.6285 21.0467 25.5202L27.8219 23.8827C27.9058 23.863 27.9705 23.7941 27.9841 23.7082C27.7319 23.4526 32.3217 0.55557 31.4232 0.681C31.4171 0.681 23.5457 2.76081 20.6779 3.51953C20.5756 3.54679 20.4679 3.49976 20.4188 3.40637C19.7446 2.12276 18.6921 2.45337 17.0145 1.77033C15.9388 1.33269 14.9102 0.670093 13.966 -0.000682831C13.8958 0.00545231 13.8924 0.079074 13.859 0.130882C13.6906 0.386513 13.6845 3.52089 13.5209 4.16508C13.3927 4.66816 13.195 5.16783 12.8781 5.58639C12.8147 5.67023 12.8201 5.78885 12.8856 5.87133C14.5598 7.97773 16.3396 10.0146 16.9647 12.6957L16.9641 12.697ZM15.5509 6.14946C16.1004 4.11532 17.4856 8.28585 17.2988 8.80938C16.827 8.41333 15.3935 6.73707 15.5509 6.14946Z" fill="#F3ECE7"/>
<path d="M15.0247 19.2923C14.7799 18.25 14.6818 14.6609 14.0376 14.1395C13.2005 13.4612 12.4472 13.8934 12.0743 14.7898C11.407 16.3904 10.908 21.6325 10.9496 24.9796L10.7662 25.0273L8.47096 25.6217C8.31622 25.6619 8.16829 25.5358 8.18533 25.377C8.45937 22.8514 11.7546 6.36078 10.9421 6.46849L4.16682 8.10589C4.08297 8.12566 4.01821 8.19451 4.00458 8.2804C4.2568 8.53603 -0.332971 31.4331 0.565486 31.3076C0.571621 31.3076 8.44369 29.2278 11.3115 28.4691C11.4138 28.4418 11.5215 28.4889 11.5706 28.5823C12.2448 29.8659 13.2973 29.5353 14.9756 30.2183C16.0513 30.6559 17.0799 31.3185 18.0241 31.9893C18.0943 31.9832 18.0977 31.9096 18.1311 31.8578C18.2995 31.6021 18.3056 28.4677 18.4692 27.8236C18.5974 27.3205 18.795 26.8208 19.112 26.4022C19.1754 26.3184 19.17 26.1998 19.1045 26.1173C17.4303 24.0109 15.6504 21.974 15.0253 19.293L15.0247 19.2923ZM16.4371 25.8392C15.9947 27.4779 15.0097 25.0893 14.7411 23.8255C14.6927 23.5971 14.979 23.4533 15.1351 23.6258C15.735 24.2877 16.5584 25.3865 16.4371 25.8392Z" fill="#F3ECE7"/>
</g>
<path d="M50.8949 21.9943H49.3269V10.4263H50.8949L56.8149 19.3703V10.4263H58.3829V21.9943H56.8149L50.8949 13.0503V21.9943ZM60.3089 18.0743C60.3089 15.6583 62.0369 13.9623 64.3889 13.9623C66.7249 13.9623 68.4529 15.6583 68.4529 18.0743C68.4529 20.4903 66.7249 22.1863 64.3889 22.1863C62.0369 22.1863 60.3089 20.4903 60.3089 18.0743ZM61.8289 18.0743C61.8289 19.7063 62.8689 20.8423 64.3889 20.8423C65.8929 20.8423 66.9489 19.7063 66.9489 18.0743C66.9489 16.4423 65.8929 15.3063 64.3889 15.3063C62.8689 15.3063 61.8289 16.4423 61.8289 18.0743ZM74.5978 14.1063V15.4823H73.9258C72.5018 15.4823 71.6218 16.3463 71.6218 17.8503V21.9943H70.1178V14.1863H71.5258L71.6218 15.3703C71.9418 14.5543 72.7258 14.0103 73.7978 14.0103C74.0698 14.0103 74.2938 14.0423 74.5978 14.1063ZM78.8632 22.1863C76.5912 22.1863 75.2152 20.4903 75.2152 18.1063C75.2152 15.7063 76.6072 13.9463 78.9272 13.9463C80.1272 13.9463 81.1352 14.4743 81.6632 15.4343V10.2183H83.1512V21.9943H81.8072L81.6792 20.5703C81.1672 21.6423 80.1112 22.1863 78.8632 22.1863ZM79.1672 20.8263C80.7032 20.8263 81.6472 19.6903 81.6472 18.0583C81.6472 16.4583 80.7032 15.3063 79.1672 15.3063C77.6312 15.3063 76.7352 16.4583 76.7352 18.0583C76.7352 19.6743 77.6312 20.8263 79.1672 20.8263ZM93.7759 21.9943H89.9519V10.4263H93.7119C97.1679 10.4263 99.5039 12.7623 99.5039 16.2183C99.5039 19.6583 97.1999 21.9943 93.7759 21.9943ZM93.5999 11.8663H91.5199V20.5383H93.6639C96.2399 20.5383 97.8719 18.8743 97.8719 16.2183C97.8719 13.5303 96.2399 11.8663 93.5999 11.8663ZM104.619 22.1863C102.315 22.1863 100.731 20.5223 100.731 18.0903C100.731 15.6423 102.283 13.9463 104.555 13.9463C106.779 13.9463 108.235 15.4823 108.235 17.8023V18.3623L102.187 18.3783C102.299 20.0263 103.163 20.9383 104.651 20.9383C105.819 20.9383 106.587 20.4583 106.843 19.5623H108.251C107.867 21.2423 106.555 22.1863 104.619 22.1863ZM104.555 15.2103C103.243 15.2103 102.411 15.9943 102.219 17.3703H106.731C106.731 16.0743 105.883 15.2103 104.555 15.2103ZM109.275 19.7223H110.715C110.715 20.5223 111.323 21.0023 112.315 21.0023C113.371 21.0023 113.979 20.5703 113.979 19.8503C113.979 19.3223 113.723 19.0023 112.907 18.7943L111.531 18.4743C110.139 18.1383 109.483 17.4503 109.483 16.2983C109.483 14.8583 110.699 13.9463 112.427 13.9463C114.139 13.9463 115.259 14.9063 115.291 16.3943H113.851C113.819 15.6103 113.291 15.1143 112.379 15.1143C111.435 15.1143 110.907 15.5303 110.907 16.2503C110.907 16.7783 111.291 17.1303 112.059 17.3223L113.435 17.6583C114.763 17.9783 115.419 18.5863 115.419 19.7543C115.419 21.2423 114.139 22.1863 112.283 22.1863C110.443 22.1863 109.275 21.2103 109.275 19.7223ZM117.823 12.3143C117.279 12.3143 116.831 11.8663 116.831 11.3223C116.831 10.7623 117.279 10.3303 117.823 10.3303C118.367 10.3303 118.815 10.7623 118.815 11.3223C118.815 11.8663 118.367 12.3143 117.823 12.3143ZM117.087 21.9943V14.1703H118.591V21.9943H117.087ZM120.278 17.8823C120.278 15.6743 121.702 13.9463 123.974 13.9463C125.238 13.9463 126.214 14.5223 126.71 15.4983L126.822 14.1703H128.166V21.6743C128.166 24.1383 126.646 25.7063 124.246 25.7063C122.118 25.7063 120.662 24.5063 120.374 22.5223H121.878C122.07 23.6743 122.934 24.3463 124.246 24.3463C125.718 24.3463 126.678 23.3863 126.678 21.8983V20.3303C126.166 21.2423 125.142 21.7863 123.91 21.7863C121.686 21.7863 120.278 20.0743 120.278 17.8823ZM121.782 17.8503C121.782 19.3223 122.694 20.4743 124.166 20.4743C125.686 20.4743 126.614 19.3863 126.614 17.8503C126.614 16.3463 125.718 15.2583 124.182 15.2583C122.678 15.2583 121.782 16.4103 121.782 17.8503ZM131.841 21.9943H130.337V14.1703H131.697L131.857 15.3703C132.353 14.4743 133.345 13.9463 134.449 13.9463C136.513 13.9463 137.457 15.2103 137.457 17.2103V21.9943H135.953V17.5463C135.953 15.9623 135.217 15.3223 134.065 15.3223C132.657 15.3223 131.841 16.3303 131.841 17.8503V21.9943ZM143.563 13.4983C143.563 11.6423 145.019 10.4423 147.259 10.4423C149.211 10.4423 150.507 11.5303 150.731 13.3543H149.931C149.771 11.9463 148.811 11.1463 147.259 11.1463C145.499 11.1463 144.331 12.0743 144.331 13.4983C144.331 14.5863 144.987 15.3063 146.283 15.6423L148.299 16.1543C150.011 16.5863 150.923 17.6103 150.923 19.0663C150.923 20.9703 149.451 22.1863 147.179 22.1863C145.051 22.1863 143.611 21.0823 143.435 19.3063H144.251C144.315 20.6023 145.483 21.4663 147.179 21.4663C148.987 21.4663 150.155 20.5383 150.155 19.0823C150.155 17.9623 149.499 17.2103 148.155 16.8743L146.187 16.3783C144.475 15.9463 143.563 14.9703 143.563 13.4983ZM154.247 21.9943H153.511V14.9543H151.959V14.3143H153.511V11.8823H154.247V14.3143H155.799V14.9543H154.247V21.9943ZM162.812 14.3143H163.548V21.9943H162.956L162.812 20.5703C162.396 21.5303 161.308 22.1863 160.028 22.1863C158.188 22.1863 157.244 20.9223 157.244 19.0503V14.2983H157.996V18.8583C157.996 20.8263 158.924 21.5143 160.204 21.5143C161.82 21.5143 162.812 20.3943 162.812 18.4103V14.3143ZM166.348 11.9623C165.98 11.9623 165.676 11.6583 165.676 11.3063C165.676 10.9383 165.98 10.6183 166.348 10.6183C166.7 10.6183 167.02 10.9383 167.02 11.3063C167.02 11.6583 166.7 11.9623 166.348 11.9623ZM165.98 21.9943V14.3143H166.716V21.9943H165.98ZM172.112 22.1863C169.856 22.1863 168.576 20.4263 168.576 18.1543C168.576 15.8823 169.856 14.1223 172.112 14.1223C173.472 14.1223 174.528 14.7303 175.088 15.9783V10.4423H175.824V21.9943H175.232L175.12 20.2663C174.544 21.5783 173.44 22.1863 172.112 22.1863ZM172.192 21.5143C174.032 21.5143 175.072 20.1063 175.072 18.1543C175.072 16.2183 174.032 14.7943 172.192 14.7943C170.368 14.7943 169.328 16.2183 169.328 18.1543C169.328 20.1063 170.368 21.5143 172.192 21.5143ZM177.685 18.1543C177.685 15.8343 179.301 14.1223 181.493 14.1223C183.685 14.1223 185.301 15.8343 185.301 18.1543C185.301 20.4743 183.685 22.1863 181.493 22.1863C179.301 22.1863 177.685 20.4743 177.685 18.1543ZM178.437 18.1543C178.437 20.1223 179.701 21.5143 181.493 21.5143C183.285 21.5143 184.549 20.1223 184.549 18.1543C184.549 16.1863 183.285 14.7943 181.493 14.7943C179.701 14.7943 178.437 16.1863 178.437 18.1543Z" fill="#F3ECE7"/>
<defs>
<clipPath id="clip0_327_2609">
<rect width="31.9886" height="31.9886" fill="white"/>
</clipPath>
</defs>
</svg>
